<?xml version="1.0" standalone="no"?>
<!DOCTYPE svg PUBLIC "-//W3C//DTD SVG 1.1//EN" "http://www.w3.org/Graphics/SVG/1.1/DTD/svg11.dtd" >
<!--
2013-9-30: Created.
-->
<svg>
<metadata>
Created by iconfont
</metadata>
<defs>

<font id="iconfont" horiz-adv-x="1024" >
  <font-face
    font-family="iconfont"
    font-weight="500"
    font-stretch="normal"
    units-per-em="1024"
    ascent="896"
    descent="-128"
  />
    <missing-glyph />
    
    <glyph glyph-name="aliyun" unicode="&#58963;" d="M950.981632 668.258304c26.624-151.552 26.624-414.72 0-569.344-18.432-109.568-41.984-135.168-153.6-154.624-153.6-24.576-412.672-26.624-569.344 1.024-110.592 19.456-134.144 41.984-153.6 153.6-27.648 152.576-27.648 413.696 0 569.344 19.456 109.568 41.984 134.144 153.6 153.6 152.576 27.648 414.72 26.624 569.344-1.024C907.973632 801.378304 931.525632 778.850304 950.981632 668.258304L950.981632 668.258304zM369.349632 722.530304c-49.152 0-90.112-39.936-90.112-89.088 0-50.176 40.96-90.112 90.112-90.112 16.384 0 31.744 4.096 45.056 12.288 94.208 54.272 102.4 56.32 197.632-1.024 13.312-7.168 28.672-12.288 45.056-12.288 49.152 0 89.088 39.936 89.088 90.112 0 49.152-38.912 90.112-89.088 90.112-16.384 0-31.744-5.12-45.056-12.288-97.28-55.296-100.352-55.296-197.632 0C401.093632 718.434304 385.733632 722.530304 369.349632 722.530304L369.349632 722.530304zM800.453632 293.474304c49.152 0 89.088 39.936 89.088 90.112 0 49.152-39.936 89.088-89.088 89.088-16.384 0-31.744-4.096-45.056-11.264-95.232-54.272-132.096-46.08-210.944-13.312l-12.288 4.096c-6.144 2.048-12.288 3.072-19.456 3.072-5.12 0-11.264-1.024-18.432-2.048l-12.288-5.12c-83.968-32.768-114.688-41.984-211.968 14.336-13.312 7.168-28.672 11.264-44.032 11.264-50.176 0-90.112-39.936-90.112-89.088 0-50.176 39.936-90.112 89.088-90.112 16.384 0 31.744 4.096 45.056 12.288 90.112 52.224 138.24 48.128 156.672 31.744 7.168-4.096 1.024-10.24-14.336-29.696-23.552-27.648-72.704-67.584-116.736-108.544-18.432-17.408-27.648-38.912-27.648-64.512 0-50.176 39.936-90.112 89.088-90.112 11.264 0 22.528 2.048 33.792 5.12 86.016 23.552 155.648 64.512 200.704 86.016 12.288 7.168 5.12-3.072 17.408-32.768 8.192-22.528 34.816-56.32 73.728-59.392 59.392-6.144 92.16 45.056 78.848 93.184-16.384 58.368-75.776 100.352-138.24 75.776-66.56-27.648-125.952-40.96-191.488-40.96-12.288 1.024-11.264 5.12-8.192 12.288 8.192 29.696 58.368 114.688 116.736 143.36 59.392 27.648 109.568 37.888 214.016-22.528C767.685632 298.594304 783.045632 293.474304 800.453632 293.474304z"  horiz-adv-x="1024" />

    
    <glyph glyph-name="liuzhu" unicode="&#58895;" d="M510.040369 830.595384c-246.921739 0-447.085548-200.171995-447.085548-447.100898 0-246.931972 200.163809-447.103968 447.085548-447.103968 246.942205 0 447.110107 200.171995 447.110107 447.103968C957.150476 630.423389 756.982574 830.595384 510.040369 830.595384zM510.878456-23.10906799999998c-224.121454 0-405.815609 181.689039-405.815609 405.806399 0 224.12657 181.689039 405.800259 405.815609 405.800259s405.801283-181.673689 405.801283-405.800259C916.679739 158.579971 735.005027-23.10906799999998 510.878456-23.10906799999998zM714.74868 626.576781l-37.696554 13.305027c-14.793938-25.154913-31.807427-48.056506-51.001581-68.741617l37.696554-19.957541C684.432211 573.3576949999999 701.444677 598.476793 714.74868 626.576781zM524.047384 573.3576949999999c-13.305027 23.629163-31.04404 45.804209-53.218062 66.524113l-33.261545-19.957541c20.685111-22.175045 36.934191-45.11143 48.784076-68.741617L524.047384 573.3576949999999zM413.174204 420.351929l28.827559-35.479049c50.239218 26.609031 89.425705 60.598146 117.52467 102.003162l0-82.046644 42.131563 0 0 77.611635c29.55513-35.479049 67.251683-68.741617 113.090685-99.785657l28.827559 35.479049c-48.784076 25.119097-86.481653 52.456722-113.090685 82.046644l106.438171 0 0 39.914058L601.657996 540.0951279999999 601.657996 648.7518259999999l-42.131563 0 0-108.655675L424.261727 540.096151l0-39.914058 102.003162 0C498.165924 469.137029 460.468346 442.526975 413.174204 420.351929zM685.922145 309.479773l62.089104 0 0 39.914058L570.613956 349.393831l19.957541 42.131563-44.349067 4.435009c-5.92392-14.794961-13.305027-30.317493-22.175045-46.566572L415.391708 349.393831l0-39.914058 86.481653 0c-13.305027-22.175045-28.827559-45.839001-46.566572-70.959122l86.48063-26.610054c-36.96796-17.740036-84.263126-28.064172-141.91722-31.04404l19.957541-39.914058c78.339206 8.870018 137.482211 25.88146 177.396269 51.001581 54.674227-19.195178 99.023294-37.696554 133.048225-55.43659l24.39255 37.696554c-38.45994 16.250102-79.82914 31.04404-124.178207 44.349067C652.659577 242.19329700000003 671.128207 272.51079000000004 685.922145 309.479773zM581.701478 236.30314599999997l-70.959122 19.957541c13.305027 14.760169 25.846668 32.499182 37.696554 53.219085l90.915639 0C626.050546 278.434709 606.821599 254.043183 581.701478 236.30314599999997zM355.520109 475.789543l0 28.827559 57.654095 0 0 42.131563-57.654095 0 0 102.003162-42.131563 0 0-102.003162-59.871599 0 0-42.131563 55.43659 0c-11.849886-79.82914-36.242436-151.549601-73.176626-215.093846l31.04404-31.04404c19.194154 35.479049 34.716686 73.176626 46.566572 113.090685l0-232.833883 42.131563 0L355.519086 411.482935c11.815093-22.174022 22.902616-47.328935 33.261545-75.393107l28.827559 42.131563C399.869177 409.26543 379.149273 441.764612 355.520109 475.789543z"  horiz-adv-x="1024" />

    
    <glyph glyph-name="zhuti" unicode="&#58948;" d="M424.704-65.47199999999998c-107.2-0.064-198.08 34.176-262.848 98.88-63.68 63.552-98.688 153.664-98.688 253.888 0 188.224 152.512 340.608 296 388.416 61.312 20.416 123.776 30.208 187.264 29.44 17.984-0.256 32.384-15.04 32.128-33.024s-13.376-32.768-32.96-32.064c-56 0.896-111.488-8.064-165.824-26.176-123.648-41.152-251.52-174.592-251.52-326.656 0-82.752 28.224-156.544 79.616-207.872 52.288-52.224 127.296-79.872 216.896-79.872 0.128 0 0.32 0 0.512 0 222.336 0.32 291.84 113.216 293.888 129.28-0.128 5.12-12.032 21.76-19.2 31.68-24.32 33.856-69.568 96.896-5.504 165.76 67.392 72.576 136.96 52.48 178.496 40.448 7.168-2.112 14.528-4.224 20.48-5.44 5.824 20.8 0.896 84.352-54.592 151.296-11.456 13.824-9.472 34.368 4.288 45.824 13.824 11.392 34.304 9.472 45.824-4.288 69.248-83.712 83.456-178.24 61.568-224.704-10.176-21.632-28.096-34.112-49.216-34.112-15.424 0-30.528 4.288-46.528 8.96-39.04 11.328-72.64 20.928-112.832-22.208-25.472-27.52-17.792-43.84 10.688-83.584 15.424-21.504 31.36-43.776 31.36-70.336 0-54.912-106.752-193.28-358.848-193.536-0.064 0-0.256 0-0.448 0zM376.96 257.28v0c-27.584 0-45.312 8.64-52.736 25.6-6.208 14.08-3.008 29.952 8.512 42.368 21.888 23.552 24.448 41.344 27.456 61.888 3.136 21.824 7.104 49.024 34.112 74.432 36.224 34.048 94.656 30.08 135.936-8.704 22.848-21.376 35.392-47.744 35.392-74.112 0-22.528-9.088-42.88-26.176-58.944-48.768-45.888-123.904-62.528-162.496-62.528zM454.208 421.44c-6.144 0-11.456-2.112-16.064-6.528-10.304-9.6-11.84-17.792-14.656-36.928-2.112-14.656-5.504-38.976-22.464-58.176 36.48 3.648 89.216 27.072 97.856 52.864 2.624 7.808-2.944 24.64-12.48 33.6-10.304 9.664-22.016 15.168-32.192 15.168zM576.64 455.488c-7.616 18.496-18.816 27.52-36.736 36.48s-21.504 24.576-21.504 24.576c-2.624 10.688 0.128 22.016 7.424 31.04 11.712 14.976 22.464 28.864 46.208 51.136 16.32 15.36 230.336 197.952 284.928 197.952 0 0 16.384 3.328 29.056-13.696 7.424-9.984 7.424-22.528 7.424-22.528 0-56.064-210.176-267.648-212.288-269.632-23.296-21.888-43.392-40.256-62.656-49.344-28.48-13.504-41.856 14.016-41.856 14.016zM595.776 531.904c2.368-1.984 4.736-4.096 7.232-6.4 3.456-3.264 6.592-6.4 9.344-9.536 6.656 5.248 14.72 12.032 24.896 21.568 27.584 25.92 75.648 78.208 116.864 126.656-51.392-38.336-108.352-83.904-138.24-112-8.576-8.064-14.976-14.72-20.096-20.288z"  horiz-adv-x="1024" />

    
    <glyph glyph-name="tj" unicode="&#58916;" d="M855.471191 570.039249c-2.324952 1.685385-4.798283 3.178389-7.424086 4.437056L564.696688 738.09171c-35.709293 18.088984-77.776388 17.919115-113.25032-1.280156L169.417039 573.986141l-6.014994-3.540639c-35.880185-22.121833-57.297984-60.561307-57.297984-102.884228l0-325.951677c0-41.490973 20.777209-79.545684 56.593949-102.393042l282.455023-163.039283c1.471514-0.959861 2.944052-1.813299 6.122441-3.605108 17.59882-9.620102 37.607526-14.719236 57.916061-14.719236 20.286022 0 40.317241 5.098111 57.873082 14.719236l2.069125 1.237177-16.745383 28.15934 18.943444-26.837228 178.588421 103.034655 107.065458 61.926398c34.045397 22.035876 54.716182 59.344596 55.292304 100.260471L912.277988 467.774121C912.277988 509.242582 890.562407 548.237711 855.471191 570.039249M846.746482 140.819604c-0.277316-18.515702-9.726525-35.601846-24.105001-44.924165L536.901645-69.128035c-0.704035-0.405229-1.429559-0.831948-2.15406-1.280156-15.871479-8.319479-37.160341-7.636934-50.984185-0.106424l-176.136579 101.582583L197.020724 95.021535c-15.914458 10.174734-25.385157 27.581172-25.385157 46.587038L171.635567 467.561273c0 19.390629 9.769504 36.989449 25.598005 46.759977l286.188045 165.279301c7.679913 4.15974 16.597003 6.356778 25.76992 6.356778 8.91709 0 17.620309-2.13257 23.998577-5.28947l283.392372-163.679873 3.583618-2.155083c16.638959-9.961886 26.580379-27.559683 26.580379-47.057759L846.746482 140.819604zM747.979014 228.813704 636.414079 228.813704c-3.03001 2.964518-4.479011 8.170077-4.479011 15.614629 1.449002 1.472538 3.668553 2.965541 6.67605 4.459568 22.333658 14.866592 38.674834 26.792203 49.106418 35.709293 13.373589 10.410094 19.325138 21.544689 17.853623 33.490765-3.007497 11.904121-11.155061 18.558681-24.532743 20.095687L469.002209 338.183647c-16.383132-1.535983-25.342178-11.946077-26.793226-31.274284 2.986007-19.326161 12.628622-29.009707 29.011754-29.009707l113.826442 0c-2.987031-2.987031-5.929036-5.206582-8.916067-6.699586-11.924587-8.916067-19.370163-14.890128-22.356171-17.833157-4.437056-4.479011-4.437056-12.670577 0-24.553209L415.416779 228.813704c-17.833157-1.514493-26.771737-11.923564-26.771737-31.250748 0-20.863167 8.937556-31.230282 26.771737-31.230282l165.172877 0c4.457522-14.890128 5.90857-26.068725 4.457522-33.491789-1.494027-19.36914-28.28623-25.320689-80.335676-17.854647-10.410094 1.471514-16.426111 2.240017-17.854647 2.240017-20.862143-1.494027-32.744775-9.706059-35.709293-24.553209 0-17.854647 10.388605-29.05371 31.230282-33.469276 111.607914-22.334681 168.842453-2.240017 171.871439 60.239989-1.494027 10.411117-2.261507 20.095687-2.261507 29.011754l0 17.877159 95.993285 0c14.84715 0 23.038716 10.367115 24.553209 31.230282C771.01773 216.89014 762.826164 227.299211 747.979014 228.813704M750.198565 532.345766l-95.951329 0 0 17.833157c-20.86419 31.272237-41.681308 31.272237-62.503543 0l0-17.833157L437.750437 532.345766l0 22.313192c-1.51347 11.902074-11.923564 17.853623-31.250748 17.853623-19.36914-1.514493-29.011754-8.191566-29.011754-20.073174l0-20.093641-98.190323 0c-16.404622-1.493004-25.321712-12.671601-26.814716-33.491789 2.987031-19.34765 12.628622-29.011754 29.011754-29.011754l93.77578 0 0-8.916067c0-19.370163 5.90857-29.780257 17.833157-31.251771L270.359033 429.674385c-14.889105-1.514493-23.080671-11.924587-24.531719-31.251771 1.451048-19.34765 10.367115-29.011754 26.750247-29.011754l125.005039 0c-26.793226-29.779234-69.968561-66.940598-129.463584-111.587448-20.841677-17.854647-23.828708-36.476773-8.91709-55.783491 16.361643-11.946077 35.709293-8.212032 58.002019 11.135618l0-138.358161c0-19.327184 9.68457-29.737278 29.011754-31.250748 19.34765 1.51347 29.779234 11.923564 31.272237 31.250748L377.487935 264.524021c32.701796 32.702819 66.172095 66.960041 100.43034 102.671381l265.581728 0c16.360619 0 25.299199 8.916067 26.793226 26.771737 0 20.820188-7.467065 31.976272-22.314215 33.469276L643.069663 427.436414c5.932106 1.471514 9.68457 8.170077 11.178597 20.093641l0 22.313192 93.731778 0c14.84715 0 23.038716 9.664104 24.553209 29.011754C771.01773 519.674165 763.594667 530.852762 750.198565 532.345766M515.867586 427.435391c4.458545 22.313192-5.950526 34.941813-31.251771 37.94931-13.396101 0-26.771737-11.924587-40.188304-35.709293l-20.051685 0c8.916067 7.423063 13.374612 15.636119 13.374612 24.553209l0 15.613606 153.99428 0 0-13.396101c0-16.383132 4.459568-26.024723 13.398148-29.011754L515.867586 427.434367z"  horiz-adv-x="1024" />

    
    <glyph glyph-name="gerenzhongxin01" unicode="&#58890;" d="M518.947536-177.336623c-250.557144 0-482.389377 17.127349-482.389377 141.328496 0 96.819679 153.254481 205.156665 341.581017 241.529062 12.186053 2.86075 22.886002 13.263479 26.935636 27.009941 2.637835 8.953777 4.532617 26.71272-12.743342 44.583122-0.705899 0.743052-1.374646 1.486104-1.969088 2.303461-60.55874 60.41013-98.082868 156.895436-98.082868 252.972063 0 147.755896 95.296423 254.978303 226.630869 254.978303 131.297293 0 226.593716-107.25956 226.593716-254.978303 0-98.082868-38.973079-196.388651-101.649517-256.575865-16.012771-16.867281-14.155141-34.403309-11.517306-43.245628 4.012481-13.5607 14.600972-23.926275 27.678688-27.084246 187.620637-35.963718 341.283797-144.412162 341.283797-241.454757C1001.299761-153.29889 808.440607-177.336623 518.947536-177.336623zM435.391336 312.111748c24.037733-27.047094 32.582831-62.304913 22.811697-95.296423-9.696829-32.768594-35.963718-57.883753-68.54655-65.425731-184.871345-35.740803-297.703795-133.154923-297.703795-187.397722 0-57.029243 143.66911-85.933967 426.994848-85.933967 283.288586 0 426.957695 28.904724 426.957695 85.933967 0 54.391408-113.203976 151.991292-297.555185 187.323416-33.474494 8.024962-59.481315 33.028663-69.066686 65.537189-10.068355 34.068935-0.594442 70.7014 25.412379 98.008563 52.310863 50.230317 85.488136 135.272622 85.488136 217.491329 0 117.513678-70.40418 199.620927-171.199187 199.620927-100.83216 0-171.23634-82.107249-171.23634-199.620927 0-81.921486 33.028663-166.703723 84.150642-216.07953C433.199332 314.972498 434.351063 313.597852 435.391336 312.111748z"  horiz-adv-x="1024" />

    
    <glyph glyph-name="upload" unicode="&#58988;" d="M252.521397 301.931114 310.52775 243.923762 455.458217 388.853229 455.458217 64.583899 569.540808 64.583899 569.540808 389.820285 715.43833 243.923762 773.445682 301.931114 512.98304 562.393756ZM512.499512 750.041506c-248.285534 0-449.560976-201.275442-449.560976-449.560976 0-248.285534 201.275442-449.560976 449.560976-449.560976 248.285534 0 449.560976 201.275442 449.560976 449.560976C962.060488 548.766064 760.785046 750.041506 512.499512 750.041506zM512.98304-79.470423c-209.575337 0-379.468425 169.894088-379.468425 379.468425s169.894088 379.467426 379.468425 379.467426c209.57234 0 379.467426-169.893089 379.467426-379.467426S722.557378-79.470423 512.98304-79.470423z"  horiz-adv-x="1024" />

    
    <glyph glyph-name="qiandao" unicode="&#58912;" d="M872.498164 742.778664 786.710202 742.778664 786.710202 674.00485C786.710202 647.853054 762.486511 626.581079 732.679965 626.581079 702.89723 626.581079 678.655994 647.853054 678.655994 674.00485L678.655994 742.778664 345.34526 742.778664 345.34526 674.00485C345.34526 647.853054 321.100264 626.581079 291.318782 626.581079 261.51349 626.581079 237.291051 647.853054 237.291051 674.00485L237.291051 742.778664 151.501837 742.778664C93.626888 742.778664 46.545455 701.468414 46.545455 650.708596L46.545455-92.187581C46.545455-142.948499 93.626888-184.278542 151.501837-184.278542L872.499417-184.278542C930.373111-184.278542 977.454545-142.948499 977.454545-92.187581L977.454545 650.707496C977.453292 701.468414 930.37186 742.778664 872.498164 742.778664L872.498164 742.778664ZM909.139475-78.160755C909.139475-94.554486 892.719244-107.896256 872.499417-107.896256L151.500584-107.896256C131.27825-107.896256 114.860527-94.554486 114.860527-78.160755L114.860527 482.155016 909.139475 482.155016 909.139475-78.160755 909.139475-78.160755ZM292.216691 644.70965C306.513567 644.70965 318.060606 653.593524 318.060606 664.560807L318.060606 742.778664 318.060606 788.84125C318.060606 799.808532 306.510307 808.691156 292.216691 808.691156 277.919814 808.691156 266.343434 799.807282 266.343434 788.84125L266.343434 742.778664 266.343434 664.560807C266.343434 653.594775 277.919814 644.70965 292.216691 644.70965L292.216691 644.70965ZM731.780866 644.70965C746.077293 644.70965 757.656567 653.593524 757.656567 664.560807L757.656567 788.84125C757.656567 799.808532 746.077293 808.691156 731.780866 808.691156 717.486068 808.691156 705.939394 799.807282 705.939394 788.84125L705.939394 664.560807C705.941023 653.594775 717.4877 644.70965 731.780866 644.70965ZM750.10089 313.905365 496.353125 21.377984C482.830988 5.789294 460.906961 5.789294 447.384824 21.377984L304.929082 185.603033C291.407478 201.191723 291.407478 226.467568 304.929082 242.056256 318.45228 257.644946 340.376307 257.644946 353.898443 242.056256L471.868975 106.056594 701.132058 370.358587C714.654196 385.947277 736.578222 385.947277 750.100359 370.358587 763.623024 354.768674 763.623024 329.494055 750.10089 313.905365Z"  horiz-adv-x="1024" />

    
    <glyph glyph-name="weixin" unicode="&#58957;" d="M693.12 548.736c11.776 0 23.36-0.896 35.008-2.176-31.36 146.048-187.456 254.528-365.696 254.528C163.2 801.088 0 665.344 0 492.864c0-99.52 54.272-181.248 145.024-244.736L108.8 139.136l126.72 63.488c45.312-8.896 81.664-18.112 126.912-18.112 11.392 0 22.656 0.512 33.792 1.344-7.04 24.256-11.2 49.6-11.2 76.032C385.088 420.224 521.024 548.736 693.12 548.736zM498.304 646.976c27.392 0 45.376-17.984 45.376-45.248 0-27.136-17.984-45.312-45.376-45.312-27.072 0-54.336 18.176-54.336 45.312C443.968 629.056 471.168 646.976 498.304 646.976zM244.672 556.416c-27.2 0-54.592 18.176-54.592 45.312 0 27.264 27.392 45.248 54.592 45.248S289.92 629.056 289.92 601.728C289.92 574.592 271.872 556.416 244.672 556.416zM1024 266.24c0 144.896-145.024 262.976-307.904 262.976-172.48 0-308.224-118.144-308.224-262.976 0-145.28 135.808-262.976 308.224-262.976 36.096 0 72.512 9.024 108.736 18.112l99.392-54.528-27.264 90.624C969.728 112.128 1024 184.512 1024 266.24zM616.128 311.616c-17.984 0-36.224 17.92-36.224 36.224 0 18.048 18.24 36.224 36.224 36.224 27.52 0 45.376-18.176 45.376-36.224C661.504 329.536 643.648 311.616 616.128 311.616zM815.488 311.616c-17.856 0-36.032 17.92-36.032 36.224 0 18.048 18.112 36.224 36.032 36.224 27.264 0 45.376-18.176 45.376-36.224C860.864 329.536 842.752 311.616 815.488 311.616z"  horiz-adv-x="1024" />

    
    <glyph glyph-name="liuyanhuifu" unicode="&#58979;" d="M884.653837 709.919067 139.34514 709.919067c-49.384757 0-74.53046-26.456558-74.53046-74.53046l0-521.715269c0-48.073902 25.146727-74.531484 74.53046-74.531484l447.184809 0 111.796202-149.061944 111.796202 149.061944 74.531484 0c49.420573 0 74.53046 26.456558 74.53046 74.531484L959.184297 635.388607C959.184297 683.462508 934.07441 709.919067 884.653837 709.919067zM847.388095 113.673337l-74.53046 0L698.326151 1.876112l-111.796202 111.797225L176.610882 113.673337c-45.27209 0-37.265742-4.222161-37.265742 37.264719l0 447.184809c0 41.522696-8.006348 37.265742 37.265742 37.265742l670.777213 0c45.271066 0 37.265742 4.257977 37.265742-37.265742l0-447.184809C884.653837 109.451176 892.659161 113.673337 847.388095 113.673337zM511.962649 411.615077c-30.532387 0-55.242162-24.928762-55.242162-55.716976 0-30.751375 24.709775-55.680137 55.242162-55.680137 30.496571 0 55.206346 24.927739 55.206346 55.680137C567.168995 386.685291 542.458197 411.615077 511.962649 411.615077zM306.565652 411.615077c-30.496571 0-55.206346-24.928762-55.206346-55.716976 0-30.751375 24.709775-55.680137 55.206346-55.680137 30.532387 0 55.244208 24.927739 55.244208 55.680137C361.809861 386.685291 337.09804 411.615077 306.565652 411.615077zM717.321784 411.615077c-30.496571 0-55.242162-24.928762-55.242162-55.716976 0-30.751375 24.746614-55.680137 55.242162-55.680137 30.534434 0 55.243185 24.927739 55.243185 55.680137C772.565992 386.685291 747.856217 411.615077 717.321784 411.615077z"  horiz-adv-x="1024" />

    
    <glyph glyph-name="caozuoqipao" unicode="&#59020;" d="M575.711292 402.76704c42.638683 42.638683 66.121287 99.329867 66.121287 159.629901s-23.482604 116.992242-66.121287 159.630925c-42.638683 42.638683-99.329867 66.121287-159.629901 66.121287s-116.991218-23.482604-159.629901-66.121287-66.121287-99.330891-66.121287-159.630925 23.482604-116.991218 66.121287-159.629901 99.329867-66.121287 159.629901-66.121287S533.072609 360.128357 575.711292 402.76704zM239.993089 562.396941c0 97.095964 78.992338 176.089325 176.088302 176.089325s176.088302-78.993361 176.088302-176.089325-78.992338-176.088302-176.088302-176.088302S239.993089 465.300977 239.993089 562.396941zM689.114136 410.97167c-79.949578 0-144.993841-65.044263-144.993841-144.993841 0-79.950602 65.044263-144.994865 144.993841-144.994865s144.993841 65.044263 144.993841 144.994865C834.107978 345.927407 769.063715 410.97167 689.114136 410.97167zM689.114136 150.780286c-63.519844 0-115.196519 51.677699-115.196519 115.197543 0 63.519844 51.677699 115.196519 115.196519 115.196519s115.196519-51.676675 115.196519-115.196519C804.310655 202.456961 752.632956 150.780286 689.114136 150.780286zM517.852991 213.134036c0 50.58839-41.157263 91.746677-91.746677 91.746677-50.589413 0-91.746677-41.158287-91.746677-91.746677s41.157263-91.746677 91.746677-91.746677C476.694704 121.387359 517.852991 162.544623 517.852991 213.134036zM426.106314 151.184682c-34.158655 0-61.949355 27.7907-61.949355 61.949355 0 34.158655 27.7907 61.949355 61.949355 61.949355s61.949355-27.7907 61.949355-61.949355C488.055668 178.975381 460.264969 151.184682 426.106314 151.184682zM544.615808 134.538928c-42.647897 0-77.345064-34.697167-77.345064-77.34404s34.697167-77.343017 77.345064-77.343017c42.647897 0 77.343017 34.696143 77.343017 77.343017S587.262681 134.538928 544.615808 134.538928zM544.615808 9.648169c-26.217139 0-47.546718 21.328556-47.546718 47.545694s21.329579 47.546718 47.546718 47.546718 47.545694-21.329579 47.545694-47.546718S570.832947 9.648169 544.615808 9.648169z"  horiz-adv-x="1025" />

    
    <glyph glyph-name="weibo1" unicode="&#58959;" d="M845.248 429.952c-1.344 0-2.688 0.064-4.032 0.448-9.536 2.112-15.616 11.648-13.504 21.312 11.2 49.728 6.592 84.992-13.568 104.768-33.344 32.768-100.928 16.96-101.568 16.768-9.664-2.368-19.328 3.584-21.568 13.12-2.304 9.6 3.456 19.2 13.12 21.568 3.584 0.896 87.424 20.736 134.912-25.856 29.568-29.056 37.504-75.456 23.424-138.112C860.736 435.584 853.376 429.952 845.248 429.952zM961.536 381.12c-1.344 0-2.56 0.128-3.968 0.32-12.928 2.176-21.696 14.464-19.584 27.328 20.032 121.088 3.84 205.888-48.192 252.224-80.256 71.296-223.616 30.784-225.088 30.4-12.544-3.648-25.728 3.648-29.44 16.192C631.68 720.128 638.912 733.312 651.584 737.088c6.784 2.048 169.6 48.32 269.76-40.384 65.216-57.856 86.656-157.312 63.68-295.616C983.04 389.376 972.992 381.12 961.536 381.12zM744.512 381.12c0 0 98.688 234.816-230.4 117.824 10.432 123.392-43.136 198.272-203.776 107.072 0 0-521.92-353.856-141.248-579.904 0 0 478.72-197.76 695.936 169.536C908.096 327.936 780.224 383.104 744.512 381.12zM435.648 26.56c-158.336-18.112-296.512 52.288-308.544 157.44S233.6 389.056 391.936 407.168c158.4 18.24 296.576-52.224 308.608-157.312C712.64 144.768 593.984 44.736 435.648 26.56zM550.144 215.616C543.616 287.552 469.12 339.648 383.808 331.904c-85.312-7.744-149.184-72.256-142.656-144.256 6.528-72 80.96-124.096 166.272-116.288C492.8 79.04 556.608 143.68 550.144 215.616zM347.776 124.288c-26.368 0-47.808 19.968-47.808 44.544 0 24.576 21.44 44.608 47.808 44.608 26.496 0 47.872-20.032 47.872-44.608C395.648 144.256 374.208 124.288 347.776 124.288zM430.464 199.36c-11.84 0-21.44 9.536-21.44 21.376 0 11.904 9.6 21.504 21.44 21.504s21.44-9.6 21.44-21.504C451.968 208.96 442.304 199.36 430.464 199.36z"  horiz-adv-x="1024" />

    
    <glyph glyph-name="qiandao1" unicode="&#58996;" d="M879.473806 781.426573l-72.552599 0L806.921207 814.161838c0 45.198194-36.639968 81.838162-81.838162 81.838162l-1.022977 0c-45.198194 0-81.838162-36.639968-81.838162-81.838162l0-32.735265L378.501499 781.426573 378.501499 814.161838c0 45.198194-36.639968 81.838162-81.838162 81.838162l-1.022977 0c-45.198194 0-81.838162-36.639968-81.838162-81.838162l0-32.735265-70.297958 0C64.249095 781.426573 0 717.177479 0 637.922334l0-476.63773c0-79.255145 64.249095-143.503217 143.50424-143.503217L879.473806 17.781387c79.255145 0 143.503217 64.249095 143.503217 143.503217L1022.977023 637.922334C1022.977023 717.177479 958.727928 781.426573 879.473806 781.426573zM692.34778 814.673327c0 18.361415 14.885339 33.246753 33.246753 33.246753s33.246753-14.885339 33.246753-33.246753l0-115.596404c0-18.361415-14.885339-33.246753-33.246753-33.246753s-33.246753 14.885339-33.246753 33.246753L692.34778 814.673327zM263.928072 814.673327c0 18.361415 14.885339 33.246753 33.246753 33.246753S330.421578 833.034741 330.421578 814.673327l0-115.596404c0-18.361415-14.885339-33.246753-33.246753-33.246753S263.928072 680.715508 263.928072 699.076923L263.928072 814.673327zM958.400575 189.98627c0-56.610525-45.891772-102.502298-102.502298-102.502298L168.104791 87.483972c-56.610525 0-102.502298 45.891772-102.502298 102.502298L65.602494 612.296759c0 56.610525 45.891772 102.502298 102.502298 102.502298L213.802198 714.799057 213.802198 698.565435c0-45.198194 36.639968-81.838162 81.838162-81.838162l1.022977 0c45.198194 0 81.838162 36.639968 81.838162 81.838162l0 16.234645 263.720408 0L642.221906 698.565435c0-45.198194 36.639968-81.838162 81.838162-81.838162l1.022977 0c45.198194 0 81.838162 36.639968 81.838162 81.838162l0 16.234645 48.977071 0c56.610525 0 102.502298-45.891772 102.502298-102.502298L958.400575 189.98627zM609.31785 592.283237c-9.669179 5.687752-21.044683 9.669179-34.126513 11.375504-26.732436-46.639568-45.500995-86.453834-55.739972-120.580348 9.100404-5.687752 19.338358-9.669179 31.852436-11.375504 10.237954 22.751009 19.907133 42.658142 28.438761 59.721399 46.639568-10.806729 92.141586-15.925706 137.074829-15.925706 2.843876 10.806729 4.550202 20.475908 4.550202 29.007536-40.951816 7.394078-83.609958 13.08183-126.836875 17.632032C600.786222 575.21998 605.905199 585.457934 609.31785 592.283237zM437.546709 451.226981c5.118977 10.237954 8.531628 19.907133 10.237954 29.007536-19.338358 6.825303-36.97039 13.08183-53.464871 17.632032-4.550202-8.531628-7.394078-18.200807-9.669179-29.007536C400.007544 460.327385 417.639576 454.639632 437.546709 451.226981zM373.843884 521.755109c35.264064-7.394078 69.390577-10.806729 102.37954-10.806729 2.275101 10.806729 3.981427 20.475908 3.981427 29.007536-28.438761 4.550202-57.446298 9.100404-87.591385 12.513055 4.550202 7.962853 9.669179 17.063257 15.356931 27.301211-10.237954 6.825303-21.613459 11.94428-34.126513 15.925706-35.264064-56.877522-58.583848-95.554238-69.959353-117.167696 7.394078-7.962853 17.632032-13.08183 30.145087-16.494482C346.542673 479.665742 360.194302 499.572875 373.843884 521.755109zM411.951824 316.996028c63.702825-3.981427 127.40565-5.687752 192.247049-5.687752 2.275101 10.237954 3.412651 21.612436 3.412651 33.557738-63.702825 3.412651-127.975449 5.687752-192.246026 6.825303C413.090398 340.315812 411.951824 328.941331 411.951824 316.996028zM340.855944 177.077323c0-11.374482 0.568775-23.319784 2.275101-34.694266 116.598921 1.136527 230.353966 3.412651 341.834933 6.825303 0.568775 3.981427 1.136527 10.237954 1.136527 18.769582 0 6.825303-1.136527 12.513055-2.275101 17.063257C556.421754 183.33385 442.096911 180.490997 340.855944 177.077323zM618.417231 501.279201c-3.412651-8.531628-6.255504-18.769582-7.394078-30.145087 27.301211-9.100404 48.345894-13.650605 63.13405-13.650605 4.550202 9.100404 6.825303 19.338358 7.962853 29.576312C660.50762 492.747572 639.462937 497.866549 618.417231 501.279201zM558.695832 431.319848c-5.687752 10.806729-14.218358 20.475908-24.457335 28.438761-84.178733-31.851413-158.688288-65.409151-224.097439-100.674238 2.275101-10.237954 10.237954-19.90611 23.319784-29.006513 53.464871 23.888559 108.067293 48.345894 162.669714 73.372004 60.291197-29.576312 120.011572-55.739972 179.165219-77.354454 9.100404 9.670202 15.356931 19.338358 19.907133 29.576312-48.914669 23.889582-99.535664 46.639568-152.43176 68.253027C547.321351 426.200871 553.009103 428.475972 558.695832 431.319848zM610.455401 201.534657c22.182234 28.438761 39.814266 56.30977 52.896096 84.178733-12.513055 5.118977-23.889582 9.100404-34.695289 12.512032-18.200807-25.025087-35.265087-52.326298-50.620995-81.333834C587.135616 209.49751 597.942346 204.378533 610.455401 201.534657zM509.212388 211.203836c10.806729 5.118977 20.476931 11.375504 29.007536 19.338358-12.513055 21.613459-26.164683 42.089367-41.520591 60.290174-11.375504-6.256527-21.044683-12.512032-29.007536-18.769582C478.498525 250.449327 492.149131 229.973419 509.212388 211.203836zM384.082861 286.282166c-9.100404-6.255504-18.200807-13.650605-26.732436-22.749986 15.925706-26.732436 34.126513-47.777119 54.602422-62.565275 10.806729 6.825303 19.907133 14.219381 26.732436 22.182234C422.190801 245.899125 403.989994 266.943808 384.082861 286.282166z"  horiz-adv-x="1024" />

    
    <glyph glyph-name="wenzhang" unicode="&#59068;" d="M678.9 797.4l-20.5 0-51.2 0L217.4 797.4c-33.9 0-61.4-26.2-61.4-58.5l0-715.7c0-32.2 27.5-58.5 61.4-58.5l584.4 0c33.9 0 61.4 26.2 61.4 58.5L863.2 591.5 678.9 797.4 678.9 797.4zM781.9 592.6 658.4 592.6 658.4 730.6 781.9 592.6 781.9 592.6zM790 27.8 230.4 27.8c-5.7 0-10.1 3.8-10.1 7.2L220.3 727.9c0 3.4 4.3 7.2 10.1 7.2l380.3 0 0-151c0-27.8 22.6-50.3 50.3-50.3l139 0L800 35C800 31.6 795.7 27.8 790 27.8L790 27.8zM789.8 27.8M557 544c0-17.7-14.3-32-32-32L352 512c-17.7 0-32 14.3-32 32l0 0c0 17.7 14.3 32 32 32l173 0C542.6 576 557 561.7 557 544L557 544zM707.5 385c0-17.7-14.3-32-32-32l-321 0c-17.7 0-32 14.3-32 32l0 0c0 17.7 14.3 32 32 32l321 0C693.1 417 707.5 402.7 707.5 385L707.5 385zM707.5 226c0-17.7-14.3-32-32-32l-321 0c-17.7 0-32 14.3-32 32l0 0c0 17.7 14.3 32 32 32l321 0C693.1 258 707.5 243.6 707.5 226L707.5 226z"  horiz-adv-x="1024" />

    
    <glyph glyph-name="iconfontxianshirequ1" unicode="&#59026;" d="M553.216 304.256 393.6 144.64l-106.432 106.432 159.616 159.616L420.16 437.312c-14.656 14.656-38.528 14.656-53.184 0L207.36 277.696c-14.656-14.72-14.656-38.592 0-53.248l159.616-159.616c14.656-14.656 38.528-14.656 53.184 0l159.616 159.616c14.72 14.656 14.72 38.464 0 53.184L553.216 304.256zM420.16 277.632c14.72-14.72 38.528-14.72 53.248 0l159.616 159.616c14.656 14.656 14.656 38.464 0 53.12-14.72 14.72-38.528 14.72-53.248 0L420.16 330.752C405.504 316.096 405.504 292.288 420.16 277.632zM845.824 543.616l-159.616 159.616c-14.656 14.656-38.528 14.656-53.184 0L473.408 543.616c-14.72-14.72-14.72-38.528 0-53.248l26.56-26.56 159.616 159.616 106.432-106.432L606.4 357.312l26.624-26.624c14.656-14.656 38.528-14.656 53.184 0l159.616 159.616C860.48 505.088 860.48 528.96 845.824 543.616zM522.432 864c-265.152 0-480-214.848-480-480 0-265.088 214.848-480 480-480s480 214.848 480 480S787.456 864 522.432 864zM522.432-31.936c-229.76 0-416 186.304-416 416 0 229.76 186.24 416 416 416 229.76 0 416-186.24 416-416C938.368 154.304 752.128-31.936 522.432-31.936z"  horiz-adv-x="1024" />

    
    <glyph glyph-name="sousuo" unicode="&#59123;" d="M998.649648-35.489824M724.940769 104.970977M748.920339-6.777589M0-82.957574l1.267396 0c0 0-0.010947 0.47801-0.034057 1.604314C0.817361-81.889653 0.415978-82.426046 0-82.957574L0-82.957574zM1212.036803-88.72532c-36.674207-36.690019-96.170055-36.690019-132.878319 0L913.341249 77.111376c-68.183958-43.7057-148.791315-69.789488-235.781872-69.789488-242.167504 0-438.482519 196.300419-438.482519 438.448462 0 242.166288 196.315015 438.474005 438.482519 438.474005 242.149259 0 438.448462-196.307717 438.448462-438.474005 0-86.99299-26.085004-167.597914-69.790704-235.781872l165.819668-165.817235C1248.745066 7.460547 1248.745066-52.034085 1212.036803-88.72532L1212.036803-88.72532zM677.559377 758.981359c-172.971576 0-313.212225-140.240649-313.212225-313.211009 0-172.954548 140.240649-313.176952 313.212225-313.176952 172.971576 0 313.176952 140.222404 313.176952 313.176952C990.736329 618.74071 850.530953 758.981359 677.559377 758.981359L677.559377 758.981359zM677.559377 758.981359"  horiz-adv-x="1240" />

    
    <glyph glyph-name="chakanrizhi" unicode="&#59110;" d="M896 576h-320v256h64v-192h256zM790.992 141.986l186.403-186.403-40.729-40.729-186.403 186.403 40.729 40.729zM686.592 51.2c-83.2 0-153.6 70.4-153.6 153.6s70.4 153.6 153.6 153.6 153.6-70.4 153.6-153.6c-6.4-83.2-70.4-153.6-153.6-153.6zM686.592 294.4c-51.2 0-89.6-38.4-89.6-89.6s38.4-89.6 89.6-89.6 89.6 38.4 89.6 89.6-44.8 89.6-89.6 89.6zM640-128h-452.608c-76.8 0-123.392 70.4-123.392 153.6v741.184c0 74.56 46.592 129.216 123.392 129.216h441.6l331.008-249.6v-390.4h-64v364.8l-286.208 211.2h-422.4c-44.8 0-59.392-33.728-59.392-69.44v-743.36c0-44.8 14.592-83.2 59.392-83.2h452.608v-64zM192 704h256v-64h-256v64zM192 576h320v-64h-320v64zM192 448h384v-64h-384v64z"  horiz-adv-x="1024" />

    
    <glyph glyph-name="gonggao" unicode="&#59075;" d="M510.753613-46.607248c-112.558565 0-225.116107-0.011256-337.674673 0.008186-27.929096 0.005117-49.826825 17.349133-55.190997 43.754526-0.672312 3.311419-0.853437 6.77224-0.854461 10.1645-0.039909 154.512073-0.047072 309.025169-0.023536 463.537242 0.004093 29.597085 24.15412 54.587246 53.629431 53.363372 15.051811-0.62524 25.421996 4.229325 36.202527 14.371312 81.190137 76.373435 162.91751 152.175865 244.665349 227.953735 5.728468 5.309936 8.667404 9.472745 6.659677 18.213827-6.5246 28.40698 13.425777 57.264215 42.260499 63.011102 29.088502 5.798053 57.770751-12.749372 63.915705-41.382503 1.963725-9.150404 1.989307-18.327414-0.99977-27.246551-1.124614-3.356444-0.152473-5.16258 2.230808-7.375991 77.295434-71.804373 154.527422-143.676283 231.766574-215.541031 10.356882-9.636474 20.623713-19.373233 31.131021-28.842909 1.687432-1.520633 4.381797-2.534729 6.674003-2.663666 7.820106-0.440022 15.791661 0.466628 23.482831-0.661056 28.680203-4.205788 47.217395-26.480094 47.310515-56.347333 0.11461-36.325323 0.027629-72.65167 0.027629-108.976994 0-115.799376 0.007163-231.597729-0.00614-347.397105-0.00307-26.341948-13.503549-47.035246-36.479843-54.69674-6.485715-2.162246-13.671371-3.100618-20.538779-3.111874C736.212528-46.661484 623.48307-46.607248 510.753613-46.607248zM171.493839 8.128377c226.837308 0 453.079052 0 679.382195 0 0 154.168242 0 308.033585 0 461.954187-226.668463 0-452.893834 0-679.382195 0C171.493839 315.97572 171.493839 162.217824 171.493839 8.128377zM769.568217 524.91745c0.202615 0.334621 0.404206 0.669242 0.606821 1.003863-1.174756 0.983397-2.397606 1.916653-3.518127 2.958378-22.587438 21.00029-45.159526 42.015929-67.740824 63.022359-53.771671 50.022277-107.554598 100.033297-161.290453 150.095483-2.170432 2.022053-3.921309 2.972705-7.088442 1.705851-12.712533-5.082762-25.620517-5.03262-38.359656-0.057305-3.036149 1.186012-4.90266 0.662079-7.133468-1.506307-6.107091-5.935176-12.44545-11.632945-18.683525-17.435091-63.382563-58.954717-126.767172-117.90841-190.141548-176.872337-7.92346-7.371898-15.793708-14.800078-24.447808-22.915919C425.128467 524.91745 597.34783 524.91745 769.568217 524.91745zM375.204427 238.903368c-0.059352-22.73684-18.317181-40.798195-41.108257-40.665165-22.398126 0.12996-40.580231 18.48091-40.478923 40.854477 0.102331 22.651906 18.520819 40.85857 41.203424 40.730657C357.225961 279.697469 375.262756 261.42122 375.204427 238.903368zM688.004573 198.238202c-22.733771 0.085958-40.816614 18.392906-40.655955 41.161469 0.157589 22.400173 18.499329 40.514739 40.930201 40.424688 22.663162-0.091074 40.821731-18.494213 40.654932-41.203424C728.767975 216.171644 710.506053 198.153268 688.004573 198.238202zM510.980787 198.237179c-22.400173 0.12689-40.582277 18.441001-40.533159 40.829917 0.049119 22.603811 18.510586 40.885176 41.157375 40.756239 22.584368-0.127913 40.677445-18.619056 40.497343-41.387619C551.925315 216.105129 533.517059 198.110289 510.980787 198.237179z"  horiz-adv-x="1024" />

    
    <glyph glyph-name="xingbie" unicode="&#58958;" d="M915.049101 675.703665l-124.130112 78.443583c-17.134239 10.829649-39.693024 5.703909-50.379411-11.440563-10.686387-17.159822-5.457292-39.836287 11.682064-50.67003l51.779294-32.719192-157.701718-35.824927C609.75286 723.339592 520.522606 792.528394 418.439626 806.154739c-16.23373 2.915399-32.870642 4.688789-49.943482 4.688789-155.303089 0-281.201473-126.016065-281.201473-281.462416 0-143.506415 107.374496-261.682931 246.049882-279.035134l0-72.79698 0-35.18843-70.298066 0c-19.415189 0-35.151591-15.747659-35.151591-35.176151 0-19.434631 15.736403-35.184337 35.151591-35.184337l70.298066 0 0-70.370721 0-16.488533 8.609075-8.568143c14.34266-14.274098 37.594223-14.274098 51.939953 0l9.748015 9.711176 0 15.35164 0 70.368674 70.303182 0c19.415189 0 35.151591 15.751752 35.151591 35.180244s-15.735379 35.180244-35.151591 35.180244l-70.303182 0 0 35.184337 0 69.683059c13.905708 1.033539 27.863604 2.750647 41.865503 5.925966 139.860375 31.770588 230.883461 162.665777 216.59913 301.768905l156.592454 35.5691-31.429827-50.446949c-10.686387-17.144472-5.457292-39.830147 11.682064-50.659797 17.139356-10.829649 39.693024-5.708002 50.379411 11.440563l77.396741 124.215046C937.412434 642.193457 932.188456 664.875039 915.049101 675.703665L915.049101 675.703665zM373.350708 304.508551c-122.528638 0-221.86097 99.334379-221.86097 221.866087 0 122.527614 99.328239 221.86097 221.86097 221.86097 122.531708 0 221.865063-99.328239 221.865063-221.86097C595.215772 403.84293 495.882416 304.508551 373.350708 304.508551L373.350708 304.508551zM373.350708 304.508551"  horiz-adv-x="1024" />

    
    <glyph glyph-name="yduigengduo1" unicode="&#59021;" d="M64.283584 384.001023c0-27.689642 11.401678-55.212486 30.980595-74.791403 19.578917-19.580964 47.097668-30.982642 74.79345-30.982642 27.688619 0 55.211463 11.402701 74.791403 30.982642 19.577894 19.578917 30.979572 47.101761 30.979572 74.791403 0 27.693736-11.402701 55.211463-30.979572 74.791403-19.579941 19.579941-47.103808 30.980595-74.791403 30.980595-27.695782 0-55.214533-11.400654-74.79345-30.980595C75.685261 439.212486 64.283584 411.693736 64.283584 384.001023L64.283584 384.001023zM64.283584 384.001023M404.752906 384.001023c0-27.689642 11.395538-55.212486 30.979572-74.791403 19.579941-19.580964 47.097668-30.982642 74.791403-30.982642 27.689642 0 55.208393 11.402701 74.792427 30.982642 19.577894 19.578917 30.976502 47.101761 30.976502 74.791403 0 27.693736-11.398608 55.211463-30.976502 74.791403-19.584034 19.579941-47.102784 30.980595-74.792427 30.980595-27.693736 0-55.211463-11.400654-74.791403-30.980595C416.148443 439.212486 404.752906 411.693736 404.752906 384.001023L404.752906 384.001023zM404.752906 384.001023M748.169349 384.001023c0-27.689642 11.401678-55.212486 30.980595-74.791403 19.580964-19.580964 47.097668-30.982642 74.792427-30.982642 27.688619 0 55.210439 11.402701 74.791403 30.982642 19.580964 19.578917 30.980595 47.101761 30.980595 74.791403 0 27.693736-11.400654 55.211463-30.980595 74.791403-19.580964 19.579941-47.102784 30.980595-74.791403 30.980595-27.693736 0-55.211463-11.400654-74.792427-30.980595C759.570004 439.212486 748.169349 411.693736 748.169349 384.001023L748.169349 384.001023zM748.169349 384.001023"  horiz-adv-x="1024" />

    
    <glyph glyph-name="yduihao" unicode="&#59023;" d="M950.070732 448.662719c-28.509311 48.539506-81.232093 77.517491-141.031037 77.517491-39.84652 0-82.882686-0.737804-115.688859-1.466398 8.792247 52.359508 21.093411 134.000923 21.093411 180.840718 0 41.685401-14.298658 75.546603-41.34771 97.921193-22.016433 18.212804-51.794643 28.243251-83.851757 28.243251-64.61053 0-115.222231-58.669214-115.222231-133.566018 0-51.828412 0-56.06183-18.834974-82.061994-62.547545-86.449931-112.591311-125.33659-128.148635-125.33659L147.206178 490.754373c-51.163263 0-92.787266-41.12463-92.787266-91.674932l0-371.07027c0-50.564629 41.625026-91.701538 92.787266-91.701538l122.401748 0c18.0941 0 32.81436 14.601556 32.81436 32.55137L302.422286 425.7161l24.581861 0c58.725496 0 131.120316 82.924641 181.50996 152.49002 31.133068 42.992163 31.133068 63.954591 31.133068 119.975489 0 18.829857 5.523807 36.430724 15.553231 49.560766 9.329483 12.213159 21.430078 18.938328 34.073026 18.938328 27.164686 0 59.544141-10.598382 59.544141-61.09752 0-62.898539-26.638707-206.962655-26.89965-208.325699l-0.030699-0.168846c-1.790786-9.803273 0.935302-19.698644 7.43125-27.089985 6.391571-7.373944 14.894222-11.271718 24.588001-11.271718 0.446162 0 0.89744 0.008186 1.351787 0.024559l0 0c0.433882 0.010233 1.190105 0.028653 2.24718 0.057305 32.570813 0.881067 95.565543 2.358721 151.532205 2.358721 36.133965 0 67.655889-16.911158 84.323501-45.24139 13.210883-22.441105 13.984503-48.107671 2.070148-68.656683-2.687202-4.630461-5.480828-9.287527-8.833179-14.715143-15.71389-25.828248-28.125571-46.230927-25.458835-91.712795 0.572028-10.129708 1.942235-20.315698 3.27151-30.167067l0.061398-0.460488c4.090155-29.901007 7.321756-53.519937-10.81737-75.268264-31.497365-37.722136-36.305881-61.889559-39.194674-76.406181l-0.144286-0.760317c-0.149403-0.800225-0.273223-1.461281-0.398066-1.871627-12.701277-25.016767-39.435151-54.555523-94.812389-54.555523l-289.534256 0c-18.095124 0-32.815383-14.5903-32.815383-32.523741 0-17.947767 14.721283-32.547277 32.815383-32.547277l289.534256 0c69.638033 0 124.410498 32.655747 154.240897 91.970668 3.231601 6.457062 4.486174 12.706393 5.497201 17.747199 1.925862 9.506515 4.562922 22.529109 25.38618 47.504944 36.430724 43.657312 30.003338 90.911546 25.316595 125.365242l-0.393973 2.982938c-1.047866 7.91118-2.041496 15.382339-2.482541 22.729677-1.486864 25.352411 2.248204 31.484062 16.173354 54.334489 2.836605 4.669346 6.053879 9.961886 9.513678 15.914458C976.104665 355.812007 975.248158 405.845541 950.070732 448.662719zM120.074238 399.07944c0 14.670118 12.171204 26.605961 27.131941 26.605961l89.587388 0 0-424.366104L147.206178 1.319298c-14.960737 0-27.131941 11.946077-27.131941 26.631544L120.074238 399.07944z"  horiz-adv-x="1024" />

    
    <glyph glyph-name="yduihuai" unicode="&#59024;" d="M952.383404 453.191872c-2.605338 4.490268-5.02955 8.499581-7.377014 12.375865l-2.173502 3.597945c-13.886265 22.799262-17.620309 28.927843-16.136515 54.254671 0.471744 7.817036 1.535983 15.742543 2.664689 24.131607l0.209778 1.563612c4.693906 34.500768 11.118222 81.751932-25.308409 125.404128-20.808932 24.935925-23.454178 37.971823-25.391297 47.502897-1.052982 5.314029-2.25025 11.337209-5.506411 17.781992-28.197202 55.971779-78.642105 88.190575-142.833079 91.585905l0 0.329505L429.587524 831.719998c-18.09103 0-32.81129-14.603603-32.81129-32.55137 0-17.932418 14.72026-32.520671 32.81129-32.520671l289.543466 0c55.255465 0 82.019015-29.471219 94.773504-54.470589 0.121773-0.420579 0.240477-1.031493 0.38681-1.763157 0.072655-0.372483 0.149403-0.753153 0.211824-1.042749 2.874467-14.427594 7.688099-38.572504 39.179324-76.324316 18.099217-21.698185 14.887059-45.343721 10.82044-75.287707l-0.020466-0.149403c-1.344624-9.946536-2.735297-20.231787-3.312442-30.433126-2.665713-45.512566 9.745968-65.913199 25.460882-91.742471l0.064468-0.106424c3.221368-5.16872 6.000668-9.797134 8.763594-14.610766 11.916401-20.549012 11.141758-46.215578-2.071172-68.660776-16.663518-28.331255-48.187489-45.243437-84.324524-45.243437-55.964616 0-118.964462 1.479701-151.535275 2.362814-1.058099 0.027629-1.813299 0.047072-2.24718 0.057305l0 0.001023c-0.455371 0.016373-0.904603 0.023536-1.353834 0.023536-9.650801 0-18.142196-3.88754-24.529673-11.206226-6.585999-7.488555-9.314133-17.404392-7.463995-27.299763 0.26913-1.39579 26.909883-145.891741 26.909883-208.359468 0-50.496068-32.380478-61.095473-59.544141-61.095473-12.649088 0-24.7548 6.729262-34.086329 18.949584-10.025331 13.129019-15.546068 30.724769-15.546068 49.548486 0 56.024991 0 76.987419-31.136138 119.984698-50.385551 69.565379-122.778324 152.49309-181.508937 152.49309l-24.614607 0L302.406936 799.139975c0 17.946744-14.721283 32.5483-32.815383 32.5483L147.184689 831.688275c-51.164287 0-92.789313-41.137932-92.789313-91.704608l0-371.049804c0-50.548256 41.625026-91.674932 92.789313-91.674932l179.862437 0c15.562441 0 65.611324-38.888705 128.155798-125.3458 18.835997-26.022677 18.835997-30.254048 18.835997-82.057901 0-74.90192 50.612725-133.574205 115.228371-133.574205 32.060183 0 61.839417 10.026354 83.850733 28.234041 27.053146 22.372543 41.35078 56.239885 41.35078 97.93859 0 46.844911-12.300141 128.480186-21.090341 180.834578 26.592658-0.598634 72.223928-1.458211 115.684766-1.458211 59.772338 0 112.49512 28.974915 141.036153 77.513398C975.271694 362.153436 976.127178 412.186969 952.383404 453.191872zM120.052748 739.957061c0 14.685467 12.171204 26.630521 27.131941 26.630521l89.590458 0 0-424.318008-89.590458 0c-7.352455 0-14.243399 2.846838-19.404955 8.015557-4.992711 4.999874-7.737218 11.585873-7.726985 18.558681L120.052748 739.957061z"  horiz-adv-x="1024" />

    
    <glyph glyph-name="yduishezhi" unicode="&#59031;" d="M512.002558 523.9054c-77.281107 0-139.907447-62.626339-139.907447-139.907447 0-77.280084 62.626339-139.912563 139.907447-139.912563 77.279061 0 139.91154 62.632479 139.91154 139.912563C651.908982 461.278037 589.280596 523.9054 512.002558 523.9054L512.002558 523.9054zM512.002558 300.056146c-46.37112 0-83.943854 37.569664-83.943854 83.941807 0 46.347584 37.572734 83.947947 83.943854 83.947947 46.375214 0 83.946924-37.600363 83.946924-83.947947C595.949482 337.62581 558.373679 300.056146 512.002558 300.056146L512.002558 300.056146zM869.455693 507.948987l-6.559393 2.13257c-4.019547 11.230786-8.55484 22.217001-13.585413 32.95353l3.090385 6.069229c14.838963 17.814738 22.898523 40.031738 22.898523 63.534012 0 26.584472-10.329253 51.586912-29.130458 70.362534l-35.193547 35.164894c-18.801205 18.775622-43.779086 29.134551-70.338998 29.134551-23.49511 0-45.684482-8.088212-63.528895-22.927175l-6.039553-3.059686c-10.711969 5.024433-21.725814 9.56382-32.988322 13.580297l-2.156106 6.584975c-4.646833 50.526767-47.326888 90.232071-99.05604 90.232071l-49.734728 0c-51.779294 0-94.408183-39.705304-99.05604-90.285283l-2.133593-6.502088c-11.230786-4.019547-22.188348-8.529257-32.869618-13.554714l-6.368034 3.168156c-17.760502 14.731516-39.948851 22.765493-63.34163 22.765493-26.560936 0-51.5337-10.358929-70.333882-29.099758l-35.198663-35.199687c-18.801205-18.770506-29.130458-43.777039-29.130458-70.362534 0-23.420409 8.036024-45.605687 22.791076-63.395866l3.111874-6.314823c-4.969175-10.629081-9.450233-21.561062-13.465686-32.708959l-6.803963-2.293229c-50.444902-4.78191-90.040712-47.387263-90.040712-99.058087l0-49.734728c0-51.670823 39.59581-94.2772 90.040712-99.058087l6.829546-2.292206c3.989871-11.178597 8.495488-22.10853 13.470803-32.713053l-3.14155-6.363941c-14.756075-17.793248-22.791076-39.956014-22.791076-63.36926 0-26.589588 10.329253-51.537793 29.130458-70.337975l35.19457-35.167964c18.805298-18.824741 43.778062-29.153994 70.338998-29.153994 23.39278 0 45.581128 8.029884 63.37233 22.784936l6.333242 3.14769c10.656711-5.000897 21.589714-9.487072 32.713053-13.477966l2.294252-6.851035c4.78498-50.390667 47.385217-89.9875 99.05604-89.9875l49.734728 0c51.676963 0 94.2772 39.59581 99.05604 89.9875l2.294252 6.851035c11.202133 4.022617 22.135136 8.525164 32.79287 13.528108l6.121418-3.084245c17.816784-14.811334 40.058344-22.898523 63.505359-22.898523 26.559912 0 51.5337 10.329253 70.334905 29.153994l35.19764 35.167964c18.801205 18.800181 29.130458 43.748387 29.130458 70.337975 0 23.503297-8.089235 45.743834-22.928199 63.558571l-3.084245 6.0416c5.054109 10.735505 9.56689 21.720697 13.605879 32.982182l6.588045 2.15406c50.52472 4.672416 90.226954 47.303352 90.226954 99.058087L959.7113 408.862247C959.712323 460.592422 920.009066 503.246895 869.455693 507.948987L869.455693 507.948987zM903.830595 359.514329c0-27.080775-21.919219-48.996924-48.969295-48.996924l-36.424584-11.938913c-6.971785-25.084305-16.805758-48.860824-29.321816-71.019497l17.271362-34.075073c19.128663-19.101033 19.128663-50.117444 0-69.270666l-34.648125-34.624589c-9.565866-9.56689-22.080901-14.34573-34.597983-14.34573-12.540617 0-25.086351 4.77884-34.649148 14.34573l-34.131355 17.271362c-22.051225-12.486382-45.712111-22.272259-70.635757-29.236881l-12.242835-36.538171c0-27.02654-21.941732-48.939619-48.996924-48.939619l-48.966225 0c-27.050076 0-48.998971 21.913079-48.998971 48.939619l-12.239765 36.538171c-24.811082 6.91141-48.420803 16.694217-70.393233 29.075199l-34.374902-17.10968c-9.564843-9.562796-22.10546-14.34573-34.649148-14.34573-12.515035 0-25.032116 4.782933-34.591843 14.34573l-34.654264 34.624589c-19.123546 19.154245-19.123546 50.169633 0 69.270666l17.10968 34.374902c-12.408611 21.971407-22.134113 45.605687-29.075199 70.416769l-36.508495 12.246929c-27.051099 0-48.965202 21.912056-48.965202 48.992831l0 48.970318c0 27.051099 21.914102 48.993854 48.965202 48.993854l36.508495 12.241812c6.941086 24.810059 16.666588 48.448432 29.075199 70.39221l-17.10968 34.350342c-19.123546 19.128663-19.123546 50.169633 0 69.299319l34.654264 34.649148c9.559727 9.534144 22.079878 14.32117 34.591843 14.32117 12.544711 0 21.971407-0.031722 31.673373-9.727549l34.894741-17.383926c22.405289 12.653181 46.508243 22.576181 71.868841 29.625738l13.220093 31.614022c0 27.053146 21.942755 48.970318 48.998971 48.970318l48.966225 0c27.054169 0 48.996924-21.918195 48.996924-48.970318l11.968589-36.428677c25.025976-6.967692 48.854685-16.776082 70.987774-29.319769l34.05256 17.298991c9.56382 9.534144 25.414833 19.153222 38.144762 19.153222 12.738116 0 21.536502-9.618055 31.102369-19.153222l34.648125-34.649148c19.123546-19.128663 19.123546-50.169633 0-69.299319l-17.246803-34.105772c12.546757-22.128997 22.325471-45.931099 29.327956-70.961168l36.393885-11.917424c27.050076 0 48.969295-21.937638 48.969295-48.993854L903.829572 359.514329 903.830595 359.514329zM903.830595 359.514329"  horiz-adv-x="1024" />

    
    <glyph glyph-name="yduisousuo" unicode="&#59035;" d="M802.523281 148.03173l-49.012274-48.992831 162.766061-162.758897 49.005111 48.992831L802.523281 148.03173 802.523281 148.03173zM802.523281 148.03173M454.996217 831.718975c-218.519876 0-396.278395-177.771823-396.278395-396.279419 0-218.508619 177.75852-396.273279 396.278395-396.273279 218.495316 0 396.252813 177.76466 396.252813 396.273279C851.248006 653.948175 673.490509 831.718975 454.996217 831.718975L454.996217 831.718975 454.996217 831.718975zM781.981433 435.434439c0-180.313715-146.68685-327.005682-326.985216-327.005682-180.317809 0-327.004659 146.691967-327.004659 327.005682 0 180.324972 146.68685 327.010799 327.004659 327.010799C635.288442 762.445238 781.981433 615.758388 781.981433 435.434439L781.981433 435.434439 781.981433 435.434439zM781.981433 435.434439"  horiz-adv-x="1024" />

    
    <glyph glyph-name="yduizuji" unicode="&#59050;" d="M869.71152 237.683587c-13.210883 10.734482-32.533974 8.588609-43.10268-4.623297-10.732435-13.20986-8.586562-32.533974 4.625344-43.106774 21.471011-17.339924 50.368154-68.863391 50.368154-97.931426 0-51.858088-42.113143-93.969185-93.970208-93.969185-30.550807 0-59.288315 14.860453-76.957743 39.801495-2.14792 2.975774-59.124586 85.055165-92.319615 120.723525-58.628282 62.59564-157.054989 59.124586-157.382447 59.124586-124.526131 25.599028-209.907731 126.668934-194.2184 230.052536 7.763824 51.525514 39.304168 96.779184 89.01536 127.165238 51.361785 31.376615 115.441219 43.434232 180.509167 33.523511 65.068971-9.740852 122.700553-40.128953 162.507164-85.212754 38.479383-43.766806 55.323003-96.117105 47.559179-147.810441-2.971681-19.815301-9.411347-38.809911-19.48682-56.481386-8.253988-14.696724-3.13541-33.528628 11.730159-41.783639 14.6957-8.252964 33.523511-3.136433 41.779545 11.724019 13.542434 24.278963 22.62837 50.375318 26.587542 77.454046 10.5728 69.861114-11.558244 139.884934-62.259996 197.522656-49.377594 55.984059-120.226199 93.472881-199.499683 105.361653-79.272461 11.893888-158.049642-2.971681-221.796502-41.947368-65.397453-40.129976-107.181091-100.57565-117.584022-170.431647-20.48045-135.587048 86.043678-267.212878 242.602364-299.584146 2.148943-0.49528 85.714174 0.995677 124.852566-40.953737 34.349319-36.664038 86.869486-116.430756 90.834798-118.90818 29.229718-38.314631 74.810846-61.108776 123.364679-61.108776 85.714174 0 155.404396 69.695339 155.404396 155.405419C943.038572 141.564435 904.394437 209.939709 869.71152 237.683587L869.71152 237.683587zM869.71152 237.683587M81.125157 584.004173c0-33.855062 27.578102-61.435211 61.434188-61.435211 33.856086 0 61.437258 27.580149 61.437258 61.435211 0 33.853016-27.581172 61.436234-61.437258 61.436234C108.703259 645.440407 81.125157 617.857189 81.125157 584.004173L81.125157 584.004173zM81.125157 584.004173M281.285896 672.855804c-10.570753 0-21.137413 3.632737-29.726022 10.899234-19.159362 16.347317-21.799492 44.920072-5.780657 64.407915 3.796466 4.622274 94.794993 110.977557 266.054495 76.79299 24.934902-4.954849 41.122583-29.229718 36.167734-54.169737-4.954849-24.934902-29.233811-41.286312-54.16769-36.167734-115.933429 23.285333-175.059038-42.936905-177.537486-45.744857C307.215452 678.302863 294.33305 672.855804 281.285896 672.855804L281.285896 672.855804zM281.285896 672.855804"  horiz-adv-x="1024" />

    
    <glyph glyph-name="iconfontfanhui" unicode="&#58902;" d="M642.60096 26.5216c14.88896-14.88896 39.0144-14.88896 53.88288 0 14.88896 14.90944 14.88896 39.05536 0 53.9648L393.4208 384l303.06304 303.49312c14.88896 14.90944 14.88896 39.05536 0 53.9648-14.86848 14.90944-38.99392 14.90944-53.88288 0L285.32736 384 642.60096 26.5216z"  horiz-adv-x="1024" />

    
    <glyph glyph-name="404" unicode="&#59003;" d="M505.344-91.136c-0.384 9.472-0.128 42.24 14.336 61.952 17.024 23.168 51.456 28.416 58.24 29.184 85.248 11.776 167.296 47.36 231.168 100.352 100.352 83.2 154.24 205.056 147.84 333.952-6.528 129.024-72.448 245.632-180.864 319.872-75.008 51.328-164.48 78.464-258.56 78.464-40.064 0-80.256-4.992-119.552-14.976-132.48-33.408-239.488-118.272-293.632-232.96C48.896 467.84 55.168 334.08 121.344 217.984c66.304-116.224 181.248-195.2 315.776-216.832l9.984-1.664-6.528-35.84-9.472 1.536c-145.92 23.552-270.72 109.184-342.4 235.136C16.512 326.656 9.728 472.32 70.144 599.808c58.88 124.672 174.976 216.832 318.464 253.056 42.368 10.624 85.632 16.128 128.896 16.128 101.76 0 198.656-29.44 279.936-85.12 118.016-80.64 189.696-207.36 196.736-347.776 7.04-140.288-51.584-272.768-160.896-363.52C764.16 15.36 675.2-23.296 582.656-36.096l-0.512 0c-6.144-0.64-25.344-4.736-32.256-14.208-5.76-7.936-7.808-28.288-7.424-39.552l0.384-9.984-37.376-1.28L505.344-91.136 505.344-91.136zM243.328 379.008l85.248 79.872L243.2 539.136l26.88 25.344 101.376-95.36 0-0.128 11.008-10.24L270.08 353.536 243.328 379.008zM638.848 458.496l26.496 25.216 0.128-0.128 85.504 80.384 26.88-25.344L692.224 458.24l85.376-79.616-26.88-25.344L638.848 458.496zM598.272 188.928c-1.536 1.536-36.48 36.224-88.064 36.224l-0.384 0c-49.408-0.256-76.032-31.232-78.976-34.688l-5.76-7.04-14.72 10.368-15.232 11.52 6.4 8.064c6.528 8.064 42.496 48.128 107.904 48.512l0.896 0c67.072 0 110.336-42.88 114.944-47.744l7.424-7.68-8.064-6.784-20.096-16.768L598.272 188.928 598.272 188.928z"  horiz-adv-x="1024" />

    
    <glyph glyph-name="xiaoxi" unicode="&#58953;" d="M728.945007 564.689269c-3.990894 6.854105-11.413957 11.466146-19.917632 11.466146-12.723789 0-23.036669-10.313903-23.036669-23.034623 0-5.602601 2.000564-10.736529 5.325285-14.730493l-0.279363-0.279363c39.23663-44.62536 63.041802-103.150288 63.041802-167.242002 0-64.091714-23.806195-122.616642-63.042825-167.243025l0.221034-0.221034c-3.89675-4.125971-6.290263-9.686616-6.290263-15.809057 0-12.720719 10.313903-23.036669 23.036669-23.036669 8.252964 0 15.487739 4.342912 19.555381 10.864442 45.228087 52.456722 72.592318 120.750131 72.592318 195.445344C800.151769 444.797691 773.344217 512.451534 728.945007 564.689269zM842.60772 679.667953c-4.092201 6.401804-11.257391 10.648524-19.418258 10.648524-12.723789 0-23.036669-10.310833-23.036669-23.036669 0-5.602601 2.001587-10.735505 5.325285-14.728446l-0.26299-0.26299c68.350714-73.930803 110.122073-172.795485 110.122073-281.420461 0-108.624976-41.772382-207.490681-110.123097-281.421484l0.26299-0.26299c-3.323699-3.992941-5.324262-9.126868-5.324262-14.729469 0-12.720719 10.313903-23.032576 23.036669-23.032576 8.160867 0 15.326057 4.246721 19.418258 10.646478 73.835635 81.70793 118.803803 190.000332 118.803803 308.800042C961.411523 489.668645 916.443355 597.961046 842.60772 679.667953zM546.745339 764.544039c-4.41352 0-8.535397-1.242294-12.038174-3.394307l-0.079818 0.046049L270.300192 578.202027 109.041462 578.202027c-25.446555 0-46.074362-20.624736-46.074362-46.074362l0-299.478745c0-25.446555 20.627806-46.076408 46.074362-46.076408l161.258731 0 262.797311-181.934632 0.191358 0.121773c0.521886-0.361227 1.057075-0.709151 1.616824-1.032516 11.018961-6.362918 25.107841-2.588965 31.468712 8.428973 2.789533 4.833075 3.629667 10.256598 2.762927 15.359826l0.642636 0.408299L569.779961 740.899526l-0.01535 0.00921c0.005117 0.198521 0.01535 0.397043 0.01535 0.596588C569.782008 754.231159 559.468105 764.544039 546.745339 764.544039zM224.226854 232.64892 109.041462 232.64892 109.041462 532.127665l115.185392 0L224.226854 232.64892zM523.707646 71.389166 270.300192 232.643804l0 0.005117L270.300192 532.125619l253.407454 161.2618L523.707646 71.389166z"  horiz-adv-x="1024" />

    
    <glyph glyph-name="shouye" unicode="&#58899;" d="M957.812555 553.853479c-10.641361 80.458473-57.284681 150.320611-127.974673 191.667298-99.018178 57.929364-227.815589 37.896098-313.223794-48.675606l-4.055362-4.121877-4.065596 4.121877c-85.418438 86.571704-214.20664 106.60497-313.223794 48.675606-70.680782-41.34157-117.323079-111.199615-127.96444-191.662181-10.733459-81.179904 15.672958-160.744008 72.438822-218.291678 12.105712-12.263301 31.884175-12.400425 44.152593-0.299829 12.277628 12.110829 12.410658 31.879058 0.304945 44.157709-43.136449 43.720757-63.169715 104.31788-54.987359 166.252465 8.100492 61.208037 43.664475 114.400516 97.584526 145.944953 74.339102 43.476187 171.893952 27.600615 237.238193-38.627762l26.28362-26.649963c5.864568-5.950526 13.873985-9.299807 22.228257-9.299807 8.354272 0 16.353456 3.349281 22.228257 9.289574l26.293853 26.649963c65.344241 66.243727 162.898067 82.115206 237.238193 38.637995 53.930283-31.544437 89.494267-84.742033 97.594759-145.955186 8.182356-61.929468-11.861142-122.521474-54.997592-166.242232-12.105712-12.272511-11.973706-32.04688 0.294712-44.157709 6.088672-6.001691 14.016225-8.994861 21.933545-8.994861 8.05956 0 16.120143 3.104711 22.228257 9.29469C942.130388 393.109472 968.535781 472.673575 957.812555 553.853479zM767.352759 305.43055 517.867638 51.950442c-1.850138-1.880837-3.913123-2.276856-5.305843-2.276856-1.402953 0.005117-3.455705 0.396019-5.305843 2.27174L257.760598 305.43055c-12.105712 12.323677-31.863708 12.476149-44.152593 0.401136-12.308327-12.085246-12.491499-31.853475-0.406253-44.157709l249.597685-253.581416c13.264095-13.447267 30.92943-20.856004 49.742914-20.866237 0.010233 0 0.010233 0 0.020466 0 18.813484 0 36.489052 7.40976 49.76338 20.866237l249.587452 253.581416c12.085246 12.308327 11.902074 32.077579-0.406253 44.157709C799.207257 317.916932 779.427772 317.754227 767.352759 305.43055zM390.70547 562.944532c-17.247826 0-31.224142-13.980409-31.224142-31.224142l0-30.461779c0-17.242709 13.975293-31.224142 31.224142-31.224142s31.224142 13.980409 31.224142 31.224142l0 30.461779C421.929612 548.964122 407.954319 562.944532 390.70547 562.944532zM634.407887 562.944532c-17.247826 0-31.224142-13.980409-31.224142-31.224142l0-30.461779c0-17.242709 13.975293-31.224142 31.224142-31.224142s31.224142 13.980409 31.224142 31.224142l0 30.461779C665.632029 548.964122 651.656737 562.944532 634.407887 562.944532zM589.5574 421.538965c-14.300704 9.407254-33.58184 5.386684-43.145659-8.756431-0.132006-0.193405-13.609972-19.748786-34.161031-19.748786-19.9821 0-32.413224 18.092054-33.256428 19.361977-9.157567 14.422478-28.245298 18.808368-42.821271 9.762341-14.646582-9.097192-19.149129-28.347628-10.051937-42.998303 11.211343-18.040888 41.956577-48.573275 86.129636-48.573275 43.948955 0 75.080999 30.30419 86.546122 48.213072C608.014774 393.191336 603.827405 412.141944 589.5574 421.538965z"  horiz-adv-x="1024" />

    
    <glyph glyph-name="xiala" unicode="&#59208;" d="M148.708903 572.175777l363.291097-302.742069 363.291097 302.742069 40.946574-49.136094L532.473287 203.237053c-11.860119-9.883091-29.086455-9.883091-40.946574 0L107.763352 523.039683 148.708903 572.175777z"  horiz-adv-x="1024" />

    
    <glyph glyph-name="chakanwenjian" unicode="&#58935;" d="M988.032-89.28c-8.832-8.704-22.912-8.704-31.616 0l-116.16 116.16c11.392 9.664 21.952 20.224 31.616 31.616l116.16-116.16C996.544-66.368 996.544-80.576 988.032-89.28L988.032-89.28zM651.648 1.6c-135.552 0-245.44 109.888-245.44 245.44 0 135.488 109.952 245.44 245.44 245.44 135.616 0 245.504-109.952 245.504-245.44C897.152 111.488 787.264 1.6 651.648 1.6L651.648 1.6zM651.648 447.872c-110.848 0-200.832-89.92-200.832-200.832s89.984-200.896 200.832-200.896c110.912 0 200.96 89.984 200.96 200.896S762.56 447.872 651.648 447.872L651.648 447.872zM495.488 247.04c0 7.552 0.64 14.976 1.728 22.272l176.768 0 0-44.544L497.28 224.768C496.128 232 495.488 239.424 495.488 247.04L495.488 247.04zM651.648 403.2c7.616 0 14.976-0.704 22.4-1.728l0-42.88L542.4 358.592C570.624 386.176 609.152 403.2 651.648 403.2L651.648 403.2zM183.04 224.768 183.04 269.312l179.648 0c-0.512-7.36-1.088-14.72-1.088-22.272 0-7.552 0.576-14.912 1.088-22.336L183.04 224.704 183.04 224.768zM383.936 358.592 183.04 358.592 183.04 403.2l224.448 0C398.464 389.12 390.4 374.272 383.936 358.592L383.936 358.592zM183.04 670.976l223.104 0 0-44.672L183.04 626.304 183.04 670.976 183.04 670.976zM406.144 492.48 183.04 492.48 183.04 537.152l223.104 0L406.144 492.48 406.144 492.48zM785.408 537.152 607.04 537.152c-49.344 0-89.344 40-89.344 89.216L517.696 827.2 116.096 827.2c-24.576 0-44.608-20.032-44.608-44.608l0-669.376c0-24.704 20.032-44.608 44.608-44.608l307.264 0c12.8-16.32 27.072-31.36 43.072-44.608L116.096 24c-49.28 0-89.216 40-89.216 89.28L26.88 782.592c0 49.28 40 89.28 89.216 89.28 0 0 171.456 0 334.656 0 4.032 0 8 0 12.032 0 7.808 0 15.296 0 22.976 0l62.464 0 275.328-296.64-1.344-7.872 7.936-7.872 0-10.24 0-56.704 0-17.152c-14.016 10.88-28.864 20.544-44.736 28.8L785.408 537.152 785.408 537.152zM562.432 790.144l0-163.776c0-24.576 19.968-44.608 44.608-44.608l150.72 0L562.432 790.144 562.432 790.144z"  horiz-adv-x="1024" />

    
    <glyph glyph-name="msg" unicode="&#58910;" d="M547.52 772.896c-13.856 6.528-30.272 4.384-42.048-5.408l-227.2-189.12-181.28 0.736c-10.432 0-20.48-4.096-27.872-11.488-7.424-7.392-11.648-17.44-11.648-27.936l-0.8-316c0-10.496 4.096-20.576 11.552-28 7.392-7.456 17.472-11.616 27.968-11.616h183.232l226.048-188.416c7.232-6.016 16.256-9.12 25.28-9.12 5.696 0 11.424 1.216 16.736 3.744 13.856 6.464 22.752 20.416 22.752 35.744l0 711.136c0.032 15.264-8.832 29.216-22.72 35.744v0zM491.232 110.368l-172.256 143.552c-7.104 5.888-16.032 9.12-25.28 9.12l-157.92-0 0.64 236.896 156.064-0.672c9.248 0 18.176 3.232 25.28 9.12l173.504 144.448v-542.464h-0.032zM700.672 575.36c-19.488 9.216-42.624 0.832-52.096-18.56-9.44-19.456-1.28-42.976 18.048-52.704 2.496-1.312 61.664-32.032 61.664-119.616 0-93.568-55.36-124.576-57.152-125.6-19.52-9.76-27.424-33.504-17.664-53.024 6.944-13.856 20.864-21.856 35.392-21.856 5.92 0 11.968 1.344 17.632 4.16 4.096 2.080 100.832 52.16 100.832 196.32-0.032 139.072-102.304 188.832-106.656 190.88v0zM823.648 691.392c-18.208 11.712-42.4 6.368-54.272-11.808-11.84-18.176-6.624-42.624 11.456-54.592 4.256-2.816 105.472-71.776 105.472-243.392 0-172-97.056-241.024-100.928-243.68-18.176-12.128-23.072-36.608-10.944-54.784 7.584-11.424 20.16-17.568 32.896-17.568 7.52 0 15.136 2.176 21.888 6.624 5.536 3.68 136.096 93.184 136.096 309.408 0.032 216.64-135.84 306.080-141.664 309.792v0zM823.648 691.392z"  horiz-adv-x="1024" />

    
    <glyph glyph-name="chakantiezishipin" unicode="&#58954;" d="M512 896c-282.767101 0-512-229.234225-512-512 0-282.771077 229.232899-512.001325 512-512.001325 282.771077 0 512 229.228923 512 512.001325C1023.998675 666.765775 794.771077 896 512 896L512 896zM512-56.143444c-243.08435 0-440.138142 197.059093-440.138142 440.144769 0 243.08435 197.053791 440.138142 440.138142 440.138142S952.142118 627.08435 952.142118 384C952.142118 140.91565 755.083025-56.143444 512-56.143444L512-56.143444zM512-56.143444M318.448174 451.617615c5.329826 0 10.550962 2.163212 14.327305 5.936904 3.769715 3.772366 5.928951 8.993502 5.928951 14.325979 0 5.332477-2.159236 10.553613-5.928951 14.325979-3.772366 3.769715-8.996153 5.934253-14.331281 5.934253-5.331152 0-10.552287-2.163212-14.323328-5.934253-3.769715-3.772366-5.934253-8.993502-5.934253-14.325979 0-5.331152 2.164538-10.552287 5.934253-14.325979C307.895886 453.780827 313.115696 451.617615 318.448174 451.617615L318.448174 451.617615zM318.448174 451.617615M776.9206 533.700386c-6.326601 3.96854-13.563818 5.980646-21.512828 5.980646-7.852248 0-15.907298-1.967039-23.939814-5.852072l-110.391426-53.31682L621.076532 499.294442c0 35.191964-28.634727 63.826691-63.829342 63.826691l-266.223564 0c-35.191964 0-63.826691-28.634727-63.826691-63.826691l0-230.587558c0-35.197266 28.634727-63.826691 63.826691-63.826691l266.228866 0c35.19329 0 63.82404 28.630751 63.82404 63.826691l0 18.674937 110.427214-53.803278c8.070956-3.931426 16.169747-5.928951 24.075015-5.928951 7.903943 0 15.089466 1.993549 21.357745 5.923649 12.62404 7.909245 19.86656 22.801212 19.86656 40.853165L796.803065 492.823362C796.803065 510.86206 789.556569 525.76198 776.9206 533.700386L776.9206 533.700386zM767.358459 492.823362l0-218.400932c0-7.568592-2.258648-13.50152-6.034991-15.868859-1.561436-0.966288-3.513894-1.456722-5.809656-1.456722-3.285909 0-7.131178 1.023284-11.120926 2.966464l-123.317679 60.086137L621.075206 447.828017l123.189106 59.488337c3.983121 1.919321 7.825738 2.932001 11.114298 2.932001 2.334201 0 4.310519-0.499713 5.882559-1.489859C765.136925 506.331509 767.358459 500.523178 767.358459 492.823362L767.358459 492.823362zM256.640215 499.294442c0 18.958594 15.42084 34.383411 34.38076 34.383411l266.228866 0c18.959919 0 34.383411-15.424817 34.383411-34.383411l0-230.587558c0-18.961245-15.424817-34.383411-34.383411-34.383411l-266.228866 0c-18.958594 0-34.38076 15.423491-34.38076 34.383411L256.640215 499.294442 256.640215 499.294442zM256.640215 499.294442"  horiz-adv-x="1024" />

    
    <glyph glyph-name="yduigengduo" unicode="&#58952;" d="M901.12 261.12c-67.84 0-122.88 55.04-122.88 122.88 0 67.904 55.04 122.88 122.88 122.88C968.96 506.88 1024 451.904 1024 384 1024 316.096 968.96 261.12 901.12 261.12L901.12 261.12zM512 261.12c-67.84 0-122.88 55.04-122.88 122.88 0 67.904 55.04 122.88 122.88 122.88 67.904 0 122.88-55.04 122.88-122.88C634.88 316.096 579.84 261.12 512 261.12L512 261.12zM122.88 261.12C55.04 261.12 0 316.096 0 384c0 67.904 55.04 122.88 122.88 122.88 67.904 0 122.88-55.04 122.88-122.88C245.76 316.096 190.784 261.12 122.88 261.12L122.88 261.12zM122.88 261.12"  horiz-adv-x="1024" />

    
    <glyph glyph-name="tupian" unicode="&#59002;" d="M511.211031-63.038476c-60.356646 0-118.925576 11.828396-174.077687 35.154661-53.254901 22.525016-101.076046 54.765301-142.136208 95.824439-41.060161 41.060161-73.299423 88.881306-95.824439 142.136208-23.327288 55.152111-35.154661 113.720018-35.154661 174.076664s11.828396 118.924553 35.154661 174.076664c22.525016 53.254901 54.765301 101.076046 95.824439 142.136208 41.060161 41.059138 88.881306 73.299423 142.136208 95.824439 55.152111 23.327288 113.720018 35.154661 174.077687 35.154661s118.925576-11.828396 174.076664-35.154661c53.254901-22.525016 101.076046-54.765301 142.135184-95.824439 41.060161-41.060161 73.300446-88.880283 95.825462-142.136208 23.327288-55.152111 35.154661-113.720018 35.154661-174.076664s-11.828396-118.925576-35.154661-174.076664c-22.525016-53.254901-54.765301-101.076046-95.825462-142.135184-41.059138-41.060161-88.880283-73.300446-142.135184-95.825462C630.136607-51.21008 571.5687-63.038476 511.211031-63.038476zM511.211031 769.949142c-103.050004 0-199.931518-40.129976-272.798083-112.99654-72.867588-72.867588-112.99654-169.749102-112.99654-272.798083s40.128953-199.931518 112.99654-272.798083 169.749102-112.99654 272.798083-112.99654c103.048981 0 199.931518 40.129976 272.798083 112.99654s112.99654 169.749102 112.99654 272.798083S856.875678 584.086038 784.009114 656.952602C711.142549 729.819167 614.260012 769.949142 511.211031 769.949142zM585.208349 348.581326c-33.287127 0-29.860075-70.013587-75.331709-70.013587-45.471634 0-70.229504 179.181939-126.750799 179.181939s-94.589308-254.021437-94.589308-254.021437l444.537516 0C733.075071 203.72824 618.495476 348.581326 585.208349 348.581326zM564.609195 505.378441a56.025 56.466 0 1 0 114.66146 0 56.025 56.466 0 1 0-114.66146 0Z"  horiz-adv-x="1024" />

    
    <glyph glyph-name="chongzhi" unicode="&#58936;" d="M508.679314-122.048609C445.586259-122.048609 387.474233-113.746891 337.663928-97.143454 287.853622-80.54002 244.684689-58.955554 209.817475-32.390056 174.95026-5.824559 145.064076 24.061624 125.139954 57.268496 105.215831 90.475365 90.27274 125.34258 83.631365 158.549451 75.329647 195.077009 75.329647 231.604566 80.310679 266.471781 85.291709 299.678653 95.25377 331.225179 110.196863 361.111362 125.139954 390.997548 141.74339 417.563042 163.327857 442.468197 183.251979 465.713006 206.496788 487.297472 231.401942 507.221595 251.326064 522.164686 267.929501 537.107781 284.532936 550.390527 299.476027 563.673275 312.758776 575.295681 322.720837 586.918086L324.381181 588.57843C332.682899 596.880148 340.984616 605.181865 347.625991 611.823239 347.625991 618.464614 347.625991 626.766331 345.965647 636.728393 345.965647 643.369767 345.965647 653.331828 344.305303 658.312859 340.984616 663.29389 337.663929 668.27492 334.343242 673.255951 329.362212 679.897325 324.381181 686.538699 319.40015 693.180073 312.758776 701.481791 306.117402 708.123164 299.476029 714.764539 291.17431 721.405913 282.872593 728.047287 274.570875 733.028318 257.96744 742.990379 248.005378 756.273128 241.364004 774.536907 233.062286 799.44206 241.364004 822.686869 262.94847 837.629962L264.608814 837.629962C276.231219 844.271336 289.513967 847.592023 302.796715 845.93168 311.098433 844.271336 321.060494 842.610993 329.362212 840.950649 337.66393 839.290306 344.305303 837.629963 352.607021 834.309275L355.927708 834.309275 357.588052 834.309275C364.229426 835.969619 365.88977 837.629962 365.88977 837.629962 372.531144 844.271336 384.15355 852.573053 399.096642 860.874772 415.700076 869.17649 433.963856 872.497176 452.227634 870.836833 470.491414 867.516146 485.434506 862.535114 497.056911 852.573053L500.377597 850.912709C502.03794 849.252366 503.698283 847.592023 505.358629 847.592023 507.018971 845.931679 508.679314 845.931679 510.339657 844.271336 512.000003 845.93168 512.000003 845.93168 513.660346 847.592023L515.320689 849.252367C526.943094 859.214428 540.225843 865.855802 551.848246 870.836833 568.451683 877.478207 586.715461 875.817863 608.299927 867.516146 619.922333 864.195459 629.884393 859.214428 636.525767 852.573054 641.506798 849.252368 644.827487 845.93168 649.808516 842.610993 651.468861 840.950649 654.789547 839.290307 658.110236 837.629963L663.091264 837.629963C668.072296 837.629963 671.392985 837.629963 671.392985 839.290307 676.374013 840.95065 683.015387 844.271337 687.996419 845.931681 694.637793 847.592025 701.279168 849.252368 709.580885 850.912711 719.542945 852.573055 729.505008 850.912711 741.127411 847.592025L742.787757 847.592025C757.730848 842.610994 769.353251 832.648933 775.994625 821.026528 782.636 809.404123 784.296346 796.121375 780.975657 784.49897 779.315314 774.536909 774.334283 764.574848 767.692908 754.612786 761.051534 746.311068 752.749817 738.00935 742.787754 733.02832 727.844662 724.726602 721.203288 718.085228 717.882602 714.76454 711.241228 706.462822 702.93951 698.161105 696.298136 689.859387 692.977447 684.878356 687.996416 679.897326 684.67573 674.916296 681.355045 671.595609 679.694699 666.614577 676.374013 663.293891L676.374013 643.369768 676.374013 616.804272C683.015387 610.162898 689.656762 601.861181 697.958479 595.219806L697.958479 595.219806C709.580882 583.597401 722.863631 571.974995 739.467068 557.031904 756.070502 543.749155 774.334283 528.806064 795.918749 512.202629L795.918749 512.202629C815.842869 497.259538 835.766992 478.995757 855.691115 459.071634 877.275581 437.487168 895.539361 412.582017 912.142795 384.356176 928.74623 356.130336 940.368636 321.263122 945.349667 284.735564 951.991041 248.208004 950.330696 206.699418 942.028978 161.87014 933.727261 123.68224 918.78417 87.154682 897.199704 53.94781 873.954895 20.740939 844.068709-9.145245 807.541151-34.050396 771.013594-58.955551 727.844662-77.219328 678.034356-92.162422 626.563704-113.746891 571.772366-122.048609 508.679314-122.048609L508.679314-122.048609ZM367.550112 542.088809C355.927707 530.466403 342.644958 517.183655 326.041523 502.240563 309.438087 487.297472 291.174308 472.35438 271.250186 457.411289 249.66572 440.807854 229.741597 422.544074 211.477819 400.959608 193.21404 381.035485 178.270948 357.790676 166.648543 334.545867 155.026139 311.301056 146.724421 284.735561 141.74339 256.509721 136.762359 229.944223 138.422703 201.718383 145.064076 171.8322 150.045107 145.266703 161.667512 118.701205 178.270947 92.135708 194.874383 65.570213 218.119192 40.665059 248.005377 19.080593 277.891561-2.503873 314.419118-22.427996 357.588051-35.710745 400.756982-50.653836 452.227634-57.295211 508.679314-57.295211 565.130995-57.295211 614.941301-50.653836 658.110233-39.031431 701.279165-27.409025 737.806722-10.80559 769.353251 10.778876 799.239434 30.702999 824.144586 53.947807 840.748023 80.513305 859.011801 107.078802 870.634206 135.304643 877.275581 165.190826 883.916955 201.718383 885.577298 236.585598 880.596266 266.471781 875.615238 296.357967 867.313518 322.923461 854.030772 346.168273 840.748023 369.413082 825.804932 389.337205 807.541151 407.600982 789.277371 425.864763 771.013594 442.468197 754.410157 455.750946 731.165348 472.35438 711.241225 488.957817 694.63779 503.900909 678.034356 518.844001 663.091264 532.126749 651.468859 543.749152 641.506798 553.711215 633.205078 562.012932 624.903361 570.31465L394.115607 570.31465C385.81389 560.35259 377.512173 550.390527 367.550112 542.088809L367.550112 542.088809ZM528.603437 320.986396 619.92233 409.261325C629.884393 419.223388 629.884393 434.16648 619.92233 444.12854 609.96027 454.090603 595.017178 454.090603 585.055115 444.12854L504.528454 363.601879 422.341448 445.788883C412.379388 455.750946 397.436296 455.750946 387.474233 445.788883 377.512173 435.826823 377.512173 420.883731 387.474233 410.921668L478.793128 319.602773 478.793128 306.320027 405.738013 306.320027C392.455265 306.320027 380.832859 294.697621 380.832859 281.414873 380.832859 268.132124 392.455265 256.509721 405.738013 256.509721L478.793128 256.509721 478.793128 208.359758 405.738013 208.359758C392.455265 208.359758 380.832859 196.737352 380.832859 183.454603 380.832859 170.171854 392.455265 158.549451 405.738013 158.549451L478.793128 158.549451 478.793128 85.494333C478.793128 72.211585 490.415534 60.589182 503.698283 60.589182 516.981031 60.589182 526.943092 72.211585 528.603437 85.494333L528.603437 158.549451 601.658552 158.549451C614.941301 158.549451 624.903361 168.511511 626.563704 183.454603 626.563704 196.737352 614.941301 208.359758 601.658552 208.359758L528.603437 208.359758 528.603437 256.509721 601.658552 256.509721C614.941301 256.509721 624.903361 266.471781 626.563704 281.414873 626.563704 294.697621 614.941301 306.320027 601.658552 306.320027L528.603437 306.320027 528.603437 320.986396ZM407.398356 631.747361 606.639581 631.747361 606.639581 635.068047C606.639581 661.633544 606.639581 673.255949 613.280955 684.878354 618.261987 691.519728 623.243018 698.161102 628.224047 706.462819 633.205078 713.104194 638.18611 718.085224 641.506796 723.066255 649.808516 733.028316 658.110233 742.990377 666.41195 751.292095 674.713667 761.254156 686.336073 769.555874 699.618822 777.857592 696.298133 776.197248 694.63779 776.197248 691.317102 774.536905 683.015385 771.216218 671.392982 769.555874 659.770576 769.555874 648.14817 769.555874 636.525767 771.216218 626.563704 776.197249 619.92233 779.517935 613.280955 784.498967 606.639584 789.479997 601.658552 792.800684 598.337864 796.121372 593.356835 801.102402 593.356835 801.102402 591.696489 802.762746 586.715461 804.423089L585.055115 804.423089C575.093055 807.743777 570.112023 806.083434 570.112023 806.083434 565.130995 804.42309 558.48962 801.102403 551.848246 796.121373 541.886183 787.819655 535.244809 782.838624 528.603434 779.517937 523.622406 774.536906 515.320686 772.876562 508.679314 772.876562L502.03794 772.876562 495.396566 776.197249C488.755191 779.517935 483.77416 781.178279 478.793128 784.498967 475.472443 786.159311 470.491411 789.479998 467.170725 791.140341 462.189694 794.461028 458.869005 797.781716 453.887977 802.762746 452.227631 802.762746 450.567288 804.42309 443.925914 806.083433 438.944885 806.083433 433.963854 806.083433 430.643165 804.423089 417.360416 796.121371 410.719045 791.14034 409.058699 791.14034 399.096639 781.178279 385.81389 776.197249 369.210456 772.876561 357.58805 771.216217 345.965645 771.216217 334.34324 774.536905 329.36221 776.197249 322.720835 777.857592 317.739805 779.517935 324.381179 774.536905 332.682896 769.555874 339.324271 762.9145 350.946676 752.952439 360.908737 742.990378 370.870799 729.707629 374.191484 724.726599 379.172516 719.745568 384.153547 713.104194 389.134576 706.462819 395.77595 698.161102 400.756982 691.519728 409.058699 679.897323 409.058699 666.614574 409.058699 640.049078 407.398356 635.068048 407.398356 633.407705 407.398356 631.747361Z"  horiz-adv-x="1024" />

    
    <glyph glyph-name="xiajiang" unicode="&#59192;" d="M584.407 156.674v645.749c0 19.241-15.436 34.839-35.141 34.839h-68.976c-19.405 0-35.136-15.579-35.136-34.839v-656.499l-206.751 203.214c-6.877 6.859-18.191 6.685-25.279-0.399l-48.781-48.782c-7.086-7.086-7.278-18.402-0.4-25.262l277.984-273.247c0.976-2.13 2.348-4.137 4.111-5.902l53.198-53.216c4.188-4.188 9.724-6.164 15.116-5.902 4.964-0.251 10.070 1.559 13.931 5.41l38.706 38.731 298.166 286.89c7.517 7.499 7.308 19.838-0.423 27.567l-53.198 53.216c-7.751 7.732-20.085 7.924-27.567 0.422l-199.555-191.993z"  horiz-adv-x="1024" />

    
    <glyph glyph-name="jubao" unicode="&#58920;" d="M913.796062 577.030341c-7.671727 15.969717-26.804483 22.733771-42.804898 15.014972-15.937994-7.671727-22.670326-26.835182-14.998599-42.789549 91.184769-189.680037 11.085476-418.204777-178.610934-509.403872-189.570543-91.184769-418.157705-11.116175-509.373173 178.579211-91.183745 189.680037-11.085476 418.204777 178.610934 509.403872 129.355113 62.156642 280.817734 47.048549 395.454634-39.32975 14.122649-10.708899 34.225499-7.828292 44.903699 6.294356 10.646478 14.137998 7.828292 34.240849-6.325056 44.902676C646.787846 840.656531 469.836715 858.28605 318.813093 785.639496 97.271394 679.111275 3.707438 412.197202 110.203938 190.656527c76.654844-159.447479 236.383732-252.619508 402.50112-252.604158 64.693418 0.01535 130.388652 14.153348 192.482873 43.995003C926.728606 88.57457 1020.292562 355.489666 913.796062 577.030341zM511.983627 234.698602c26.553773 0 48.097438 21.528316 48.097438 48.097438L560.081065 609.87847c0 26.569122-21.543665 48.097438-48.097438 48.097438-26.553773 0-48.097438-21.528316-48.097438-48.097438l0-327.08243C463.887212 256.225895 485.430878 234.698602 511.983627 234.698602zM511.994883 148.381701m-58.641585 0a57.306 57.306 0 1 0 117.28317 0 57.306 57.306 0 1 0-117.28317 0Z"  horiz-adv-x="1024" />

    
    <glyph glyph-name="zansel" unicode="&#58928;" d="M692.576705 791.839709c-85.22094 0-149.290141-60.538795-186.835246-108.797915-37.514405 48.25912-101.583606 108.797915-186.804547 108.797915-109.012809 0-208.570269-75.120908-247.742431-186.896644-5.740748-16.393365 2.885723-34.32169 19.24839-40.062438 16.454764-5.863545 34.352389 2.916423 40.062438 19.24839 30.361495 86.633103 106.096387 144.838759 188.431603 144.838759 55.135738 0 114.937752-43.930535 160.004157-117.485785 5.710049-9.332553 15.871479-15.011902 26.800389-15.011902 10.92891 0 21.090341 5.679349 26.800389 15.011902 45.097104 73.55525 104.899118 117.485785 160.034856 117.485785 111.62224 0 202.430432-102.412484 202.430432-228.309846 0-67.13912-30.392194-130.164548-92.926436-192.69879-95.41307-95.41307-251.027244-236.567927-295.327192-265.640056-43.592844 29.102828-200.864774 169.121815-297.812803 266.069845-33.983999 33.983999-59.065234 70.14764-74.599022 107.508549-2.578732 6.231935-4.881171 12.43317-6.907317 18.603707-5.433756 16.516162-23.269983 25.511024-39.694047 20.046568-16.485463-5.433756-25.449625-23.208585-20.046568-39.694047 2.517333-7.644097 5.372358-15.318894 8.565073-23.055089 18.726503-45.035706 48.412616-88.045265 88.22946-127.862109 2.885723-2.885723 291.826462-287.774169 342.051353-287.774169 51.206242 0 337.108784 284.458657 339.994508 287.344381 73.892941 73.892941 111.345947 153.680125 111.345947 237.151211C957.87907 661.214672 838.858326 791.839709 692.576705 791.839709z"  horiz-adv-x="1024" />

    
    <glyph glyph-name="zannor" unicode="&#58929;" d="M696.011944 789.13511c-84.656075 0-148.300604-60.137659-185.566346-108.076484-37.296441 47.938825-100.94097 108.076484-185.597045 108.076484-108.321054 0-207.187783-74.622558-246.069325-185.688119-0.243547-0.671289-0.457418-1.341554-0.64059-2.043542-19.730367-71.817676-18.388812-131.741463 5.641487-209.658044 18.602683-44.7369 48.091298-87.461981 87.644129-127.014812 2.866281-2.866281 289.892413-285.866726 339.782683-285.866726 50.866505 0 334.87286 282.572704 337.739141 285.440008 73.402777 73.402777 110.608144 152.660912 110.608144 235.579413C959.555246 659.375791 841.323471 789.13511 696.011944 789.13511z"  horiz-adv-x="1024" />

    
    <glyph glyph-name="qq1" unicode="&#58960;" d="M162.797568 319.502336c-30.287872-75.442176-35.29728-147.37408-10.903552-160.73728 16.87552-9.275392 43.149312 11.943936 67.883008 50.542592 9.814016-42.274816 34.000896-80.203776 68.589568-110.866432-36.21888-14.116864-59.94496-37.175296-59.94496-63.24224 0-42.944512 64.079872-77.613056 143.112192-77.613056 71.305216 0 130.373632 28.153856 141.273088 65.247232 2.885632 0 14.209024 0 16.961536 0 11.114496-37.093376 70.053888-65.247232 141.441024-65.247232 79.120384 0 143.11424 34.670592 143.11424 77.613056 0 26.066944-23.683072 48.955392-59.98592 63.24224 34.463744 30.662656 58.81856 68.591616 68.548608 110.866432 24.727552-38.598656 50.880512-59.817984 67.84-50.542592 24.518656 13.3632 19.632128 85.295104-10.94656 160.73728-23.891968 59.068416-56.266752 102.67648-80.953344 112.449536 0.333824 3.592192 0.626688 7.563264 0.626688 11.364352 0 22.892544-6.098944 44.027904-16.498688 61.239296 0.210944 1.376256 0.210944 2.67264 0.210944 4.050944 0 10.569728-2.381824 20.385792-6.475776 28.86656-6.223872 153.76384-101.339136 276.02944-255.35488 276.02944-153.974784 0-249.217024-122.267648-255.440896-276.02944-4.009984-8.605696-6.473728-18.466816-6.473728-28.993536 0-1.378304 0-2.67264 0.167936-4.052992-10.190848-17.084416-16.29184-38.219776-16.29184-61.19424 0-3.844096 0.206848-7.686144 0.4608-11.446272C219.148288 422.094848 186.650624 378.568704 162.797568 319.502336L162.797568 319.502336z"  horiz-adv-x="1024" />

    
    <glyph glyph-name="icon" unicode="&#58951;" d="M739.444641 447.224973l0 90.779539c0 125.392872-100.732216 227.012294-225.016847 227.012294L289.460066 765.016807c-124.236536 0-224.970798-101.619422-224.970798-227.012294l0-90.779539c0-105.395422 71.228251-194.041368 167.740352-219.591277 8.620331-2.266623 3.242857-6.178723 12.264325-7.423063 10.041704-1.378393 34.568307-158.894893 44.966121-158.894893 0 0 74.695213 158.894893 112.506377 158.894893 66.251913 0 112.462375 0 112.461351 0C638.712425 220.210633 739.444641 321.833125 739.444641 447.224973L739.444641 447.224973zM299.279712 156.537452c-14.661931 66.653049-20.172435 89.091084-40.390919 96.286973-4.886287 4.090155-10.751878 6.978948-17.684778 8.842389-83.312474 22.044062-141.522224 98.334609-141.522224 185.559183l0 90.779539c0 105.796558 85.134982 191.82284 189.778274 191.82284l224.966705 0c104.690364 0 189.825346-86.026282 189.825346-191.82284l0-90.779539c0-105.797581-85.134982-191.823863-189.825346-191.823863L401.968489 255.402133C389.747143 255.40111 357.089349 255.40111 299.279712 156.537452L299.279712 156.537452zM785.787108 589.105355l0-35.19457c91.224678 0 138.724505-83.490529 138.724505-173.33579l0-65.009619c0-75.53637-52.255131-139.033543-123.128295-157.342538-2.975774-0.75213-3.686972-1.774413-4.26514-2.750647l5.92699-3.674693 0.035816-0.138146-6.005784 3.724835c-0.667196-1.027399-1.245364-2.001587-4.6673-2.445702l0.738827-5.517667-0.027629 0.01228-0.710175 5.505387c-0.844228-0.135076-1.777483-1.555425-2.795673-4.048199-3.601015-8.66331-8.445346-30.167067-13.331633-51.807946-6.487761-28.836769-13.021571-57.985646-16.929578-57.985646-0.446162 0.933255-44.033889 91.177606-73.006757 110.282732L676.74667 134.831081l0 0.021489 9.597589 14.530948c-3.420913 2.264577-6.665817 3.555989-9.597589 3.555989-48.656163 0-82.558297 0-82.959434 0-0.754177-0.046049-1.822508-0.091074-3.198855-0.13303-18.21792-0.665149-88.914052-3.37691-121.437793 31.636534l-25.770943-23.951505c28.882817-31.058366 78.869279-45.50131 148.542104-42.834574l2.444679 0.091074 75.127048 0c12.405541-11.214413 38.33305-52.837392 58.174957-93.934392l9.598612-19.905352 22.083971 0c32.036647 0 37.681204 25.015743 51.275827 85.445044 2.622734 11.653411 6.201236 27.577079 8.900717 37.669948 82.995249 25.765827 140.17453 101.854782 140.17453 188.544167l0 65.007573C959.70209 503.347179 888.207779 589.105355 785.787108 589.105355L785.787108 589.105355zM231.650429 501.124558c-14.575973 0-26.394137-11.819187-26.394137-26.397207 0-14.57188 11.818163-26.38902 26.394137-26.38902s26.350135 11.81714 26.350135 26.38902C258.000564 489.305371 246.227426 501.124558 231.650429 501.124558L231.650429 501.124558zM389.969201 501.124558c-14.573927 0-26.393113-11.819187-26.393113-26.397207 0-14.57188 11.819187-26.38902 26.393113-26.38902 14.57495 0 26.394137 11.81714 26.394137 26.38902C416.363338 489.305371 404.544151 501.124558 389.969201 501.124558L389.969201 501.124558zM626.138038 509.700887l17.550725-0.310062c1.954515 101.662401-80.069617 147.694807-180.000584 149.606343l-0.357134-17.593703C502.122537 640.648264 628.358613 628.962108 626.138038 509.700887L626.138038 509.700887zM565.883723 501.124558c-14.573927 0-26.394137-11.819187-26.394137-26.397207 0-14.57188 11.82021-26.38902 26.394137-26.38902 14.57495 0 26.39516 11.81714 26.39516 26.38902C592.276836 489.305371 580.45765 501.124558 565.883723 501.124558L565.883723 501.124558zM776.988722 307.615309c14.575973 0 26.396183 11.81714 26.396183 26.394137 0 14.57188-11.82021 26.391067-26.396183 26.391067-14.572904 0-26.394137-11.819187-26.394137-26.391067C750.594585 319.432449 762.415818 307.615309 776.988722 307.615309L776.988722 307.615309z"  horiz-adv-x="1024" />

    
    <glyph glyph-name="jinbi" unicode="&#58884;" d="M511.597-61.548c-246.37 0-446.086 199.713-446.086 446.083 0 246.372 199.716 446.085 446.086 446.085 246.37 0 446.083-199.714 446.083-446.085-0-246.369-199.713-446.083-446.083-446.083v0 0zM511.597 773.664c-214.874 0-389.127-174.21-389.127-389.129 0-214.939 174.253-389.148 389.127-389.148 214.916 0 389.127 174.208 389.127 389.148 0 214.92-174.21 389.129-389.127 389.129v0 0zM672.975 242.173h-132.908v-94.924c0-10.476-8.495-18.97-18.953-18.97l-19.036 0c-10.455 0-18.95 8.494-18.95 18.97v94.924l-132.867-0c-10.499 0-18.995 8.494-18.995 18.973v18.97c0 10.5 8.494 18.995 18.995 18.995h132.867l0 94.924h-132.867c-10.499 0-18.995 8.494-18.995 18.971v18.95c0 10.544 8.494 19.039 18.995 19.039h42.038l-56.936 96.187c-4.096 6.926 0.085 16.815 9.321 22.042l16.728 9.366c9.258 5.251 20.127 3.812 24.177-3.114l73.666-124.525h104.683l73.62 124.525c4.137 6.926 14.964 8.365 24.222 3.114l16.726-9.366c9.236-5.227 13.419-15.116 9.281-22.042l-56.896-96.187h42.082c10.455 0 18.951-8.494 18.951-19.039v-18.95c0-10.476-8.495-18.971-18.951-18.971h-132.908v-94.924h132.909c10.455 0 18.951-8.494 18.951-18.995v-18.97c-0.001-10.479-8.497-18.973-18.952-18.973v0 0z"  horiz-adv-x="1024" />

    
    <glyph glyph-name="cha" unicode="&#58955;" d="M627.264187 380.42866100000003l289.794176 289.794176c14.538111 14.538111 14.538111 38.114063 0 52.652174l-52.747341 52.747341c-14.538111 14.538111-38.117133 14.538111-52.655244 0l-289.794176-289.790082-289.790082 289.790082c-14.538111 14.538111-38.121226 14.538111-52.655244 0l-52.747341-52.747341c-14.538111-14.538111-14.538111-38.114063 0-52.652174l289.794176-289.794176-289.794176-289.790082c-14.538111-14.538111-14.538111-38.121226 0-52.747341l52.747341-52.655244c14.535041-14.538111 38.117133-14.538111 52.655244 0l289.790082 289.790082 289.794176-289.790082c14.538111-14.538111 38.117133-14.538111 52.655244 0l52.747341 52.744271c14.538111 14.538111 14.538111 38.121226 0 52.659337L627.264187 380.42866100000003z"  horiz-adv-x="1024" />

    
    <glyph glyph-name="qiandao4" unicode="&#58933;" d="M946.968068-127.963161 77.030909-127.963161c-24.858154 0-44.99682 21.499663-44.99682 47.997154L32.034089 719.974961c0 26.497491 20.139689 47.996131 44.99682 47.996131l89.992617 0 0-47.996131c0-61.870116 47.012733-111.992677 104.992239-111.992677 57.980529 0 104.994286 50.122561 104.994286 111.992677l0 47.995107 269.980921 0 0-47.996131c0-61.870116 47.009663-111.992677 104.993263-111.992677 57.979506 0 104.991216 50.122561 104.991216 111.992677l0 47.996131 89.994664 0c24.858154 0 44.99682-21.49864 44.99682-47.996131l0-799.939945C991.964888-106.463498 971.826222-127.963161 946.968068-127.963161zM901.970224 511.991046 122.028753 511.991046l0-543.960922 779.941472 0L901.970224 511.991046zM362.009406 288.005692c12.421914 0 23.670096-5.374404 31.825846-14.062274l73.166393-78.054727 178.176029 190.048427c8.139378 8.686846 19.388583 14.06125 31.809473 14.06125 24.858154 0 44.997843-21.497617 44.997843-47.994084 0-13.248745-5.030573-25.251104-13.187347-33.93488L498.812141 94.085074c-8.139378-8.68787-19.387559-14.062274-31.810496-14.062274-12.420891 0-23.669072 5.374404-31.825846 14.062274L330.184583 206.072635c-8.140401 8.685823-13.169951 20.690228-13.169951 33.936927C317.013609 266.510122 337.153298 288.005692 362.009406 288.005692zM751.982188 671.979854c-24.841781 0-44.998867 21.497617-44.998867 47.996131L706.983321 847.966007c0 26.498514 20.155039 47.997154 44.998867 47.997154 24.858154 0 44.99682-21.49864 44.99682-47.997154l0-127.990023C796.979008 693.476447 776.840342 671.979854 751.982188 671.979854zM272.015765 671.979854c-24.857131 0-44.99682 21.497617-44.99682 47.996131L227.018945 847.966007c0 26.498514 20.139689 47.997154 44.99682 47.997154 24.841781 0 44.998867-21.49864 44.998867-47.997154l0-127.990023C317.013609 693.476447 296.85857 671.979854 272.015765 671.979854z"  horiz-adv-x="1024" />

    
    <glyph glyph-name="xiaoxixiantiao" unicode="&#58994;" d="M200.849424-125.626953c-5.191232 0-10.381441 1.415232-14.96176 4.261047-8.93858 5.538133-14.101159 15.559371-13.407358 26.051329 3.692089 55.601342 9.215896 140.155087 11.159154 173.799348C66.829058 163.663756 0.346901 292.631036 0.346901 434.979068c0 252.897847 229.871411 458.647885 512.430812 458.647885 281.697777 0 510.875386-205.749014 510.875386-458.647885 0-252.912174-230.593865-458.661188-514.040473-458.661188-35.837206 0-74.144674 3.567245-109.147886 10.104125L215.173664-121.753739C210.759121-124.335541 205.79097-125.626953 200.849424-125.626953zM512.776689 836.776154c-251.218602 0-455.580013-180.239014-455.580013-401.797086 0-128.579447 62.512752-244.73698 171.522492-318.714855 12.852726-8.480138 14.07353-9.28548 4.024663-161.932066l148.343583 86.60752c6.051833 3.539616 13.269211 4.732791 20.125363 3.275603 34.116005-7.120165 72.617901-11.047614 108.398826-11.047614 252.106832 0 457.189673 180.252317 457.189673 401.811412S763.134691 836.776154 512.776689 836.776154zM277.269931 344.249671c-48.967248 0-88.829118 39.847543-88.829118 88.829118s39.86187 88.829118 88.829118 88.829118 88.829118-39.847543 88.829118-88.829118S326.237179 344.249671 277.269931 344.249671zM277.269931 465.056084c-17.626449 0-31.978319-14.351869-31.978319-31.978319 0-17.626449 14.351869-31.978319 31.978319-31.978319 17.626449 0 31.978319 14.351869 31.978319 31.978319C309.24825 450.705238 294.897404 465.056084 277.269931 465.056084zM512 344.249671c-48.967248 0-88.829118 39.847543-88.829118 88.829118s39.86187 88.829118 88.829118 88.829118 88.829118-39.847543 88.829118-88.829118S560.966225 344.249671 512 344.249671zM512 465.056084c-17.626449 0-31.978319-14.351869-31.978319-31.978319 0-17.626449 14.351869-31.978319 31.978319-31.978319s31.978319 14.351869 31.978319 31.978319C543.978319 450.705238 529.626449 465.056084 512 465.056084zM746.701416 344.249671c-48.967248 0-88.829118 39.847543-88.829118 88.829118s39.86187 88.829118 88.829118 88.829118 88.829118-39.847543 88.829118-88.829118S795.668665 344.249671 746.701416 344.249671zM746.701416 465.056084c-17.626449 0-31.978319-14.351869-31.978319-31.978319 0-17.626449 14.351869-31.978319 31.978319-31.978319s31.978319 14.351869 31.978319 31.978319C778.679735 450.705238 764.328889 465.056084 746.701416 465.056084z"  horiz-adv-x="1024" />

    
    <glyph glyph-name="wj" unicode="&#58909;" d="M910.096853 535.420353v61.707521c0 52.999376-42.030493 112.28336-98.281728 112.28336H528.430288l-11.681508 22.048347c-11.685603 22.352441-34.588894 36.229158-59.807189 36.229158H154.570848c-50.436591 0-91.447294-42.168717-91.447294-94.010079v-575.540275c0-51.814741 41.010703-93.969123 91.447294-93.969124h711.539892c50.436591 0 91.447294 42.154383 91.447294 93.969124V451.385989c-0.001024 30.633625-20.252452 63.054954-47.461181 84.034364z m-98.281728 117.546131c19.540851 0 41.838002-29.75206 41.838002-55.83861v-39.040748c-0.956309 0.038908-1.913642 0.097269-2.865855 0.097269H608.55341l-50.21748 94.782089h253.479195z m89.297134-554.828099c0-20.684531-15.709473-37.524373-35.002543-37.524374h-711.538868c-19.292047 0-35.002544 16.839842-35.002544 37.524374V673.67866c0 20.712176 15.709473 37.565329 35.002544 37.565329h302.370743c4.134449 0 7.882893-2.274049 9.867182-6.07676l99.825748-188.420497a28.252068 28.252068 0 0 1 24.94287-15.007087h259.209881c20.229926 0 50.326011-30.12373 50.326011-50.353656v-353.247604z"  horiz-adv-x="1024" />

    
    <glyph glyph-name="-jia" unicode="&#58961;" d="M47.653 456.674c-24.501 0-44.368-19.881-44.368-44.4v-56.548c0-24.492 19.862-44.4 44.368-44.4h928.694c24.501 0 44.368 19.881 44.368 44.4v56.548c0 24.497-19.862 44.4-44.368 44.4H47.653zM586.326 848.347c0 24.501-19.881 44.368-44.4 44.368h-56.548c-24.492 0-44.4-19.862-44.4-44.368v-928.694c0-24.501 19.881-44.368 44.4-44.368h56.548c24.497 0 44.4 19.862 44.4 44.368V848.347z"  horiz-adv-x="1024" />

    
    <glyph glyph-name="lianjie" unicode="&#59037;" d="M512-125.376c-280.896 0-509.312 228.608-509.312 509.44S231.104 893.376 512 893.376c281.024 0 509.44-228.48 509.44-509.312s-228.416-509.44-509.44-509.44zM512 832.576C264.768 832.576 63.552 631.296 63.552 384.064A448.96 448.96 0 0 1 512-64.384c247.232 0 448.576 201.152 448.576 448.448C960.576 631.296 759.232 832.576 512 832.576zM660.928 673.344c53.632-3.136 102.016-29.632 126.912-88.576 25.408-59.84 14.208-115.52-29.76-163.072-31.104-33.6-64.576-65.152-97.216-97.344-14.08-14.016-36.608-14.4-48.96-1.536-12.288 13.056-10.88 30.912 3.968 46.016 32 32.064 64.512 63.808 96.128 96.256 47.872 48.832 26.624 126.592-39.36 144.064-27.392 7.232-53.76 2.24-74.624-17.216-33.728-31.168-65.28-64.512-98.688-95.744-7.104-6.656-18.816-12.352-27.968-11.84-24.64 1.6-37.056 31.36-19.968 49.088A2097.6 2097.6 0 0 0 564.48 644.224c23.872 21.504 55.168 28.928 96.448 29.12z m-438.272-429.952a146.944 146.944 0 0 0 43.328 105.856c31.808 32.384 64.064 64.256 96.32 96.128 15.296 15.232 34.112 16.384 47.104 3.328 13.44-13.568 12.096-30.656-3.84-46.72-30.656-30.784-61.824-61.184-92.224-92.224-37.504-38.528-39.104-90.24-4.48-125.12 33.152-33.28 87.936-33.472 122.56 0.256 31.424 30.656 62.08 62.272 93.44 92.992 18.88 18.368 47.488 11.776 52.48-12.992a37.568 37.568 0 0 0-8-28.928c-34.24-36.032-68.16-72.128-105.344-105.024-45.504-39.872-98.816-46.656-154.368-22.528a146.56 146.56 0 0 0-86.976 134.976z m416.192 234.304c-1.92-3.776-4.16-11.84-9.408-17.088-62.72-63.552-125.504-126.784-188.608-189.76a30.848 30.848 0 0 0-45.12 0.256c-12.8 12.864-12.416 30.528 1.792 44.736 61.952 62.208 124.16 124.032 186.432 185.984 9.92 10.176 21.888 14.4 35.712 8.512 12.16-5.376 18.496-15.168 19.2-32.64z"  horiz-adv-x="1024" />

    
    <glyph glyph-name="xiaoxi1" unicode="&#59057;" d="M512 744.448c-200.704 0-363.52-151.552-363.52-338.944 0-101.376 48.128-192.512 122.88-254.976-14.336-38.912-15.36-78.848-9.216-104.448 4.096-16.384 21.504-25.6 37.888-19.456 24.576 8.192 64.512 21.504 88.064 26.624C423.936 61.44 512 66.56 512 66.56c200.704 0 363.52 151.552 363.52 338.944S712.704 744.448 512 744.448z m108.544-480.256c-25.6-29.696-63.488-46.08-103.424-46.08-38.912 0-76.8 16.384-103.424 46.08-11.264 12.288-10.24 31.744 3.072 43.008 12.288 11.264 31.744 10.24 43.008-3.072 14.336-16.384 34.816-25.6 57.344-25.6 21.504 0 43.008 9.216 57.344 25.6 11.264 12.288 30.72 14.336 43.008 3.072 13.312-11.264 14.336-30.72 3.072-43.008z"  horiz-adv-x="1024" />

    
    <glyph glyph-name="fenlei3" unicode="&#58913;" d="M62.019 761.198c0 27.581 22.554 49.94 49.855 49.94h425.198c27.533 0 49.855-22.452 49.855-49.94v-50.096c0-27.581-22.554-49.94-49.855-49.94H111.874c-27.535 0-49.855 22.452-49.855 49.94v50.096z m0-699.879c0 27.581 22.493 49.94 49.773 49.94h600.335c27.487 0 49.773-22.452 49.773-49.94v-50.096c0-27.581-22.493-49.94-49.773-49.94H111.792c-27.488 0-49.773 22.452-49.773 49.94v50.096z m0 349.94c0 27.581 22.243 49.94 49.984 49.94h799.876c27.605 0 49.985-22.452 49.985-49.94v-50.096c0-27.581-22.243-49.94-49.985-49.94H112.003c-27.605 0-49.984 22.452-49.984 49.94v50.096z"  horiz-adv-x="1024" />

    
    <glyph glyph-name="qiehuanzuhu" unicode="&#58962;" d="M950.093 408.228l-179.775 173.078c-14.382 13.851-35.955 13.851-50.336 0-14.382-13.842-14.382-34.614 0-48.465l118.647-114.228h-345.168c-21.573 0-35.955-13.842-35.955-34.614s14.382-34.614 35.955-34.614h345.168l-118.639-114.228c-14.382-13.851-14.382-34.623 0-48.465 7.192-6.93 14.382-10.386 25.164-10.386 10.792 0 17.982 3.465 25.173 10.386l179.775 176.535s0 3.465 3.6 3.465c10.782 10.386 10.782 31.149-3.6 41.535zM853.010 141.693c-21.573 0-35.955-13.851-35.955-34.614v-69.237c0-20.763-14.382-34.614-35.955-34.614h-611.235c-21.573 0-35.955 13.851-35.955 34.614v692.317c0 20.763 14.382 34.614 35.955 34.614h611.235c21.573 0 35.955-13.851 35.955-34.614v-69.237c0-20.764 14.382-34.614 35.955-34.614s35.955 13.851 35.955 34.614v69.237c0 58.842-46.736 103.842-107.865 103.842h-611.235c-61.119 0-107.865-45-107.865-103.842v-692.317c0-58.842 46.747-103.842 107.865-103.842h611.235c61.128 0 107.865 45 107.865 103.842v69.237c0 20.764-14.382 34.614-35.955 34.614z"  horiz-adv-x="1024" />

    
    <glyph glyph-name="wancheng" unicode="&#58940;" d="M512-128C229.239467-128 0 101.2736 0 384 0 666.760533 229.239467 896 512 896c282.760533 0 512-229.239467 512-512 0-282.7264-229.2736-512-512-512z m0 960C264.567467 832 64 631.432533 64 384S264.567467-63.965867 512-63.965867 959.965867 136.567467 959.965867 384c0 247.432533-200.6016 448-447.965867 448z m-54.0672-626.244267c-1.058133-1.570133-1.7408-3.242667-3.072-4.642133a31.197867 31.197867 0 0 0-22.903467-9.045333 31.0272 31.0272 0 0 0-22.8352 9.045333c-1.3312 1.3312-1.979733 3.037867-3.037866 4.573867l-156.9792 156.945066a31.232 31.232 0 1 0 44.168533 44.202667l138.683733-138.683733 298.666667 298.666666a31.197867 31.197867 0 1 0 44.168533-44.168533l-316.859733-316.893867z"  horiz-adv-x="1024" />

    
    </font>
</defs>
</svg>
