<?xml version="1.0" standalone="no"?><!DOCTYPE svg PUBLIC "-//W3C//DTD SVG 1.1//EN" "http://www.w3.org/Graphics/SVG/1.1/DTD/svg11.dtd"><svg t="1544702115815" class="icon" style="" viewBox="0 0 1024 1024" version="1.1" xmlns="http://www.w3.org/2000/svg" p-id="10152" xmlns:xlink="http://www.w3.org/1999/xlink" width="200" height="200"><defs><style type="text/css"></style></defs><path d="M177.066667 490.666667v108.8c0 177.066667 142.933333 320 320 320s320-142.933333 320-320V490.666667" fill="#D9E6FF" p-id="10153"></path><path d="M497.066667 934.4c-185.6 0-337.066667-151.466667-337.066667-337.066667v-106.666666c0-8.533333 6.4-17.066667 17.066667-17.066667s14.933333 8.533333 14.933333 17.066667v108.8c0 168.533333 136.533333 305.066667 305.066667 305.066666S800 768 800 599.466667V490.666667c0-8.533333 6.4-17.066667 17.066667-17.066667s14.933333 8.533333 14.933333 17.066667v108.8c0 185.6-149.333333 334.933333-334.933333 334.933333z" fill="#77A5F0" p-id="10154"></path><path d="M499.2 691.2s-66.133333-76.8-170.666667-8.533333-100.266667 108.8-177.066666 83.2c0 0 70.4 121.6 151.466666 83.2 27.733333 12.8 57.6 8.533333 85.333334-6.4 40.533333-27.733333 76.8-55.466667 108.8-87.466667" fill="#FFFFFF" p-id="10155"></path><path d="M270.933333 872.533333c-74.666667 0-130.133333-93.866667-132.266666-98.133333-4.266667-6.4-2.133333-12.8 2.133333-17.066667s10.666667-6.4 17.066667-4.266666c42.666667 14.933333 51.2 6.4 87.466666-23.466667 17.066667-14.933333 40.533333-34.133333 76.8-57.6 115.2-74.666667 189.866667 10.666667 192 10.666667 6.4 6.4 4.266667 17.066667-2.133333 23.466666-6.4 6.4-17.066667 4.266667-23.466667-2.133333-2.133333-2.133333-59.733333-64-149.333333-6.4-34.133333 21.333333-55.466667 40.533333-72.533333 55.466667-27.733333 23.466667-44.8 38.4-76.8 38.4 23.466667 29.866667 66.133333 66.133333 108.8 44.8 4.266667-2.133333 8.533333-2.133333 12.8 0 27.733333 12.8 53.333333 4.266667 70.4-6.4 44.8-29.866667 76.8-57.6 104.533333-85.333334 6.4-6.4 17.066667-6.4 23.466667 0s6.4 17.066667 0 23.466667c-29.866667 29.866667-64 57.6-110.933334 89.6-34.133333 17.066667-66.133333 21.333333-93.866666 10.666667-12.8 2.133333-23.466667 4.266667-34.133334 4.266666z" fill="#77A5F0" p-id="10156"></path><path d="M497.066667 691.2s66.133333-76.8 170.666666-8.533333 100.266667 108.8 177.066667 83.2c0 0-70.4 121.6-151.466667 83.2-27.733333 12.8-57.6 8.533333-85.333333-6.4-40.533333-27.733333-76.8-55.466667-108.8-87.466667" fill="#FFFFFF" p-id="10157"></path><path d="M725.333333 872.533333c-10.666667 0-21.333333-2.133333-32-6.4-29.866667 10.666667-59.733333 8.533333-93.866666-10.666666-49.066667-34.133333-83.2-61.866667-113.066667-89.6-6.4-6.4-6.4-17.066667 0-23.466667s17.066667-6.4 23.466667 0c27.733333 27.733333 59.733333 53.333333 106.666666 85.333333 17.066667 8.533333 42.666667 17.066667 70.4 4.266667 4.266667-2.133333 8.533333-2.133333 12.8 0 42.666667 19.2 83.2-14.933333 108.8-44.8-32 2.133333-49.066667-14.933333-76.8-38.4-17.066667-14.933333-38.4-34.133333-72.533333-55.466667-91.733333-59.733333-147.2 2.133333-149.333333 6.4-6.4 6.4-14.933333 6.4-23.466667 2.133334-6.4-6.4-6.4-14.933333-2.133333-23.466667 0 0 76.8-87.466667 192-10.666667 34.133333 23.466667 57.6 42.666667 76.8 57.6 36.266667 29.866667 44.8 38.4 87.466666 23.466667 6.4-2.133333 12.8 0 17.066667 4.266667s4.266667 12.8 2.133333 17.066666c-4.266667 8.533333-59.733333 102.4-134.4 102.4z" fill="#77A5F0" p-id="10158"></path><path d="M499.2 106.666667C332.8 106.666667 198.4 241.066667 198.4 407.466667h605.866667C802.133333 241.066667 663.466667 106.666667 499.2 106.666667z" fill="#92B6FF" p-id="10159"></path><path d="M804.266667 424.533333H198.4c-8.533333 0-17.066667-6.4-17.066667-17.066666 0-174.933333 142.933333-317.866667 317.866667-317.866667S817.066667 232.533333 821.333333 405.333333c0 4.266667-2.133333 8.533333-4.266666 10.666667-4.266667 6.4-8.533333 8.533333-12.8 8.533333z m-588.8-32h571.733333c-10.666667-149.333333-136.533333-268.8-288-268.8s-275.2 117.333333-283.733333 268.8z" fill="#77A5F0" p-id="10160"></path><path d="M981.333333 424.533333H42.666667c-8.533333 0-17.066667-6.4-17.066667-17.066666s6.4-17.066667 17.066667-17.066667h938.666666c8.533333 0 17.066667 6.4 17.066667 17.066667s-8.533333 17.066667-17.066667 17.066666z" fill="#77A5F0" p-id="10161"></path></svg>