<?xml version="1.0" standalone="no"?><!DOCTYPE svg PUBLIC "-//W3C//DTD SVG 1.1//EN" "http://www.w3.org/Graphics/SVG/1.1/DTD/svg11.dtd"><svg t="1544766361030" class="icon" style="" viewBox="0 0 1024 1024" version="1.1" xmlns="http://www.w3.org/2000/svg" p-id="817" xmlns:xlink="http://www.w3.org/1999/xlink" width="200" height="200"><defs><style type="text/css"></style></defs><path d="M505.856 64L926.72 288.256v448l-420.864 224.256-420.864-224.256V288.256l420.864-224.256z m0 176.64L250.88 376.32v271.36L505.856 783.36l254.976-135.68v-271.36L505.856 240.64z" fill="#d9e6ff" p-id="818" data-spm-anchor-id="a313x.7781069.0.i2" class=""></path><path d="M505.856 342.528l159.232 84.992v169.472l-159.232 84.992-159.232-84.992V427.008l159.232-84.48z m-26.112-59.392V148.992c-39.936-14.336-60.928-57.856-46.592-97.792C447.488 11.264 491.008-9.728 530.944 4.608s60.928 57.856 46.592 97.792c-7.68 22.016-25.088 38.912-46.592 46.592v133.632c-16.896-1.536-34.304-1.536-51.2 0.512z m210.944 92.16l147.968-85.504c-4.608-41.984 25.6-79.872 68.096-84.992 41.984-4.608 79.872 25.6 84.992 68.096s-25.6 79.872-68.096 84.992c-23.04 2.56-46.08-5.632-62.464-21.504L716.8 419.84c-7.168-15.872-15.872-30.72-26.112-44.544zM716.8 604.16l144.384 83.456c30.208-29.696 78.848-29.696 108.544 0.512 29.696 30.208 29.696 78.848-0.512 108.544s-78.848 29.696-108.544-0.512c-16.384-16.384-24.064-39.424-21.504-62.464L691.2 648.192c9.728-13.312 18.432-28.16 25.6-44.032z m-185.856 136.704v133.632c39.936 14.336 60.928 57.856 46.592 97.792s-57.856 60.928-97.792 46.592c-39.936-14.336-60.928-57.856-46.592-97.792 7.68-22.016 25.088-38.912 46.592-46.592v-133.632c16.896 2.048 34.304 2.048 51.2 0z m-210.944-92.16l-147.968 85.504c4.608 41.984-25.6 79.872-68.096 84.992-41.984 4.608-79.872-25.6-84.992-68.096s25.6-79.872 68.096-84.992c23.04-2.56 46.08 5.632 62.464 21.504L294.4 604.16c6.656 15.872 15.36 30.72 25.6 44.544z m-25.6-228.864L150.016 336.384c-30.208 29.696-78.848 29.696-108.544-0.512s-29.696-79.36 0.512-109.056 78.848-29.696 108.544 0.512c16.384 16.384 24.064 39.424 21.504 62.464l147.968 85.504c-10.24 13.824-18.944 28.672-25.6 44.544z" fill="#77a5f0" p-id="819" data-spm-anchor-id="a313x.7781069.0.i0" class=""></path></svg>